solid OpenSCAD_Model
  facet normal 0.308648 0.048885 0.949919
    outer loop
      vertex 2.26995 0 4.45503
      vertex 2.15885 0.701454 4.45503
      vertex 0.782172 0 4.93844
    endloop
  endfacet
  facet normal 0.308648 0.048885 0.949919
    outer loop
      vertex 2.15885 0.701454 4.45503
      vertex 0.74389 0.241705 4.93844
      vertex 0.782172 0 4.93844
    endloop
  endfacet
  facet normal 0.278435 0.14187 0.949919
    outer loop
      vertex 2.15885 0.701454 4.45503
      vertex 1.83643 1.33424 4.45503
      vertex 0.74389 0.241705 4.93844
    endloop
  endfacet
  facet normal 0.278435 0.14187 0.949919
    outer loop
      vertex 1.83643 1.33424 4.45503
      vertex 0.632791 0.459749 4.93844
      vertex 0.74389 0.241705 4.93844
    endloop
  endfacet
  facet normal 0.220967 0.220967 0.949919
    outer loop
      vertex 1.83643 1.33424 4.45503
      vertex 1.33424 1.83643 4.45503
      vertex 0.632791 0.459749 4.93844
    endloop
  endfacet
  facet normal 0.220967 0.220967 0.949919
    outer loop
      vertex 1.33424 1.83643 4.45503
      vertex 0.459749 0.632791 4.93844
      vertex 0.632791 0.459749 4.93844
    endloop
  endfacet
  facet normal 0.14187 0.278435 0.949919
    outer loop
      vertex 1.33424 1.83643 4.45503
      vertex 0.701454 2.15885 4.45503
      vertex 0.459749 0.632791 4.93844
    endloop
  endfacet
  facet normal 0.14187 0.278435 0.949919
    outer loop
      vertex 0.701454 2.15885 4.45503
      vertex 0.241705 0.74389 4.93844
      vertex 0.459749 0.632791 4.93844
    endloop
  endfacet
  facet normal 0.048885 0.308648 0.949919
    outer loop
      vertex 0.701454 2.15885 4.45503
      vertex 1.38995e-16 2.26995 4.45503
      vertex 0.241705 0.74389 4.93844
    endloop
  endfacet
  facet normal 0.048885 0.308648 0.949919
    outer loop
      vertex 1.38995e-16 2.26995 4.45503
      vertex 4.78942e-17 0.782172 4.93844
      vertex 0.241705 0.74389 4.93844
    endloop
  endfacet
  facet normal -0.048885 0.308648 0.949919
    outer loop
      vertex 1.38995e-16 2.26995 4.45503
      vertex -0.701454 2.15885 4.45503
      vertex 4.78942e-17 0.782172 4.93844
    endloop
  endfacet
  facet normal -0.048885 0.308648 0.949919
    outer loop
      vertex -0.701454 2.15885 4.45503
      vertex -0.241705 0.74389 4.93844
      vertex 4.78942e-17 0.782172 4.93844
    endloop
  endfacet
  facet normal -0.14187 0.278435 0.949919
    outer loop
      vertex -0.701454 2.15885 4.45503
      vertex -1.33424 1.83643 4.45503
      vertex -0.241705 0.74389 4.93844
    endloop
  endfacet
  facet normal -0.14187 0.278435 0.949919
    outer loop
      vertex -1.33424 1.83643 4.45503
      vertex -0.459749 0.632791 4.93844
      vertex -0.241705 0.74389 4.93844
    endloop
  endfacet
  facet normal -0.220967 0.220967 0.949919
    outer loop
      vertex -1.33424 1.83643 4.45503
      vertex -1.83643 1.33424 4.45503
      vertex -0.459749 0.632791 4.93844
    endloop
  endfacet
  facet normal -0.220967 0.220967 0.949919
    outer loop
      vertex -1.83643 1.33424 4.45503
      vertex -0.632791 0.459749 4.93844
      vertex -0.459749 0.632791 4.93844
    endloop
  endfacet
  facet normal -0.278435 0.14187 0.949919
    outer loop
      vertex -1.83643 1.33424 4.45503
      vertex -2.15885 0.701454 4.45503
      vertex -0.632791 0.459749 4.93844
    endloop
  endfacet
  facet normal -0.278435 0.14187 0.949919
    outer loop
      vertex -2.15885 0.701454 4.45503
      vertex -0.74389 0.241705 4.93844
      vertex -0.632791 0.459749 4.93844
    endloop
  endfacet
  facet normal -0.308648 0.048885 0.949919
    outer loop
      vertex -2.15885 0.701454 4.45503
      vertex -2.26995 2.77989e-16 4.45503
      vertex -0.74389 0.241705 4.93844
    endloop
  endfacet
  facet normal -0.308648 0.048885 0.949919
    outer loop
      vertex -2.26995 2.77989e-16 4.45503
      vertex -0.782172 9.57885e-17 4.93844
      vertex -0.74389 0.241705 4.93844
    endloop
  endfacet
  facet normal -0.308648 -0.048885 0.949919
    outer loop
      vertex -2.26995 2.77989e-16 4.45503
      vertex -2.15885 -0.701454 4.45503
      vertex -0.782172 9.57885e-17 4.93844
    endloop
  endfacet
  facet normal -0.308648 -0.048885 0.949919
    outer loop
      vertex -2.15885 -0.701454 4.45503
      vertex -0.74389 -0.241705 4.93844
      vertex -0.782172 9.57885e-17 4.93844
    endloop
  endfacet
  facet normal -0.278435 -0.14187 0.949919
    outer loop
      vertex -2.15885 -0.701454 4.45503
      vertex -1.83643 -1.33424 4.45503
      vertex -0.74389 -0.241705 4.93844
    endloop
  endfacet
  facet normal -0.278435 -0.14187 0.949919
    outer loop
      vertex -1.83643 -1.33424 4.45503
      vertex -0.632791 -0.459749 4.93844
      vertex -0.74389 -0.241705 4.93844
    endloop
  endfacet
  facet normal -0.220967 -0.220967 0.949919
    outer loop
      vertex -1.83643 -1.33424 4.45503
      vertex -1.33424 -1.83643 4.45503
      vertex -0.632791 -0.459749 4.93844
    endloop
  endfacet
  facet normal -0.220967 -0.220967 0.949919
    outer loop
      vertex -1.33424 -1.83643 4.45503
      vertex -0.459749 -0.632791 4.93844
      vertex -0.632791 -0.459749 4.93844
    endloop
  endfacet
  facet normal -0.14187 -0.278435 0.949919
    outer loop
      vertex -1.33424 -1.83643 4.45503
      vertex -0.701454 -2.15885 4.45503
      vertex -0.459749 -0.632791 4.93844
    endloop
  endfacet
  facet normal -0.14187 -0.278435 0.949919
    outer loop
      vertex -0.701454 -2.15885 4.45503
      vertex -0.241705 -0.74389 4.93844
      vertex -0.459749 -0.632791 4.93844
    endloop
  endfacet
  facet normal -0.048885 -0.308648 0.949919
    outer loop
      vertex -0.701454 -2.15885 4.45503
      vertex -4.16984e-16 -2.26995 4.45503
      vertex -0.241705 -0.74389 4.93844
    endloop
  endfacet
  facet normal -0.048885 -0.308648 0.949919
    outer loop
      vertex -4.16984e-16 -2.26995 4.45503
      vertex -1.43683e-16 -0.782172 4.93844
      vertex -0.241705 -0.74389 4.93844
    endloop
  endfacet
  facet normal 0.048885 -0.308648 0.949919
    outer loop
      vertex -4.16984e-16 -2.26995 4.45503
      vertex 0.701454 -2.15885 4.45503
      vertex -1.43683e-16 -0.782172 4.93844
    endloop
  endfacet
  facet normal 0.048885 -0.308648 0.949919
    outer loop
      vertex 0.701454 -2.15885 4.45503
      vertex 0.241705 -0.74389 4.93844
      vertex -1.43683e-16 -0.782172 4.93844
    endloop
  endfacet
  facet normal 0.14187 -0.278435 0.949919
    outer loop
      vertex 0.701454 -2.15885 4.45503
      vertex 1.33424 -1.83643 4.45503
      vertex 0.241705 -0.74389 4.93844
    endloop
  endfacet
  facet normal 0.14187 -0.278435 0.949919
    outer loop
      vertex 1.33424 -1.83643 4.45503
      vertex 0.459749 -0.632791 4.93844
      vertex 0.241705 -0.74389 4.93844
    endloop
  endfacet
  facet normal 0.220967 -0.220967 0.949919
    outer loop
      vertex 1.33424 -1.83643 4.45503
      vertex 1.83643 -1.33424 4.45503
      vertex 0.459749 -0.632791 4.93844
    endloop
  endfacet
  facet normal 0.220967 -0.220967 0.949919
    outer loop
      vertex 1.83643 -1.33424 4.45503
      vertex 0.632791 -0.459749 4.93844
      vertex 0.459749 -0.632791 4.93844
    endloop
  endfacet
  facet normal 0.278435 -0.14187 0.949919
    outer loop
      vertex 1.83643 -1.33424 4.45503
      vertex 2.15885 -0.701454 4.45503
      vertex 0.632791 -0.459749 4.93844
    endloop
  endfacet
  facet normal 0.278435 -0.14187 0.949919
    outer loop
      vertex 2.15885 -0.701454 4.45503
      vertex 0.74389 -0.241705 4.93844
      vertex 0.632791 -0.459749 4.93844
    endloop
  endfacet
  facet normal 0.308648 -0.048885 0.949919
    outer loop
      vertex 2.15885 -0.701454 4.45503
      vertex 2.26995 0 4.45503
      vertex 0.74389 -0.241705 4.93844
    endloop
  endfacet
  facet normal 0.308648 -0.048885 0.949919
    outer loop
      vertex 2.26995 0 4.45503
      vertex 0.782172 0 4.93844
      vertex 0.74389 -0.241705 4.93844
    endloop
  endfacet
  facet normal 0.585255 0.0926952 0.805534
    outer loop
      vertex 3.53553 0 3.53553
      vertex 3.36249 1.09254 3.53553
      vertex 2.26995 0 4.45503
    endloop
  endfacet
  facet normal 0.585255 0.0926952 0.805534
    outer loop
      vertex 3.36249 1.09254 3.53553
      vertex 2.15885 0.701454 4.45503
      vertex 2.26995 0 4.45503
    endloop
  endfacet
  facet normal 0.527966 0.269012 0.805534
    outer loop
      vertex 3.36249 1.09254 3.53553
      vertex 2.86031 2.07813 3.53553
      vertex 2.15885 0.701454 4.45503
    endloop
  endfacet
  facet normal 0.527966 0.269012 0.805534
    outer loop
      vertex 2.86031 2.07813 3.53553
      vertex 1.83643 1.33424 4.45503
      vertex 2.15885 0.701454 4.45503
    endloop
  endfacet
  facet normal 0.418996 0.418996 0.805534
    outer loop
      vertex 2.86031 2.07813 3.53553
      vertex 2.07813 2.86031 3.53553
      vertex 1.83643 1.33424 4.45503
    endloop
  endfacet
  facet normal 0.418996 0.418996 0.805534
    outer loop
      vertex 2.07813 2.86031 3.53553
      vertex 1.33424 1.83643 4.45503
      vertex 1.83643 1.33424 4.45503
    endloop
  endfacet
  facet normal 0.269012 0.527966 0.805534
    outer loop
      vertex 2.07813 2.86031 3.53553
      vertex 1.09254 3.36249 3.53553
      vertex 1.33424 1.83643 4.45503
    endloop
  endfacet
  facet normal 0.269012 0.527966 0.805534
    outer loop
      vertex 1.09254 3.36249 3.53553
      vertex 0.701454 2.15885 4.45503
      vertex 1.33424 1.83643 4.45503
    endloop
  endfacet
  facet normal 0.0926952 0.585255 0.805534
    outer loop
      vertex 1.09254 3.36249 3.53553
      vertex 2.16489e-16 3.53553 3.53553
      vertex 0.701454 2.15885 4.45503
    endloop
  endfacet
  facet normal 0.0926952 0.585255 0.805534
    outer loop
      vertex 2.16489e-16 3.53553 3.53553
      vertex 1.38995e-16 2.26995 4.45503
      vertex 0.701454 2.15885 4.45503
    endloop
  endfacet
  facet normal -0.0926952 0.585255 0.805534
    outer loop
      vertex 2.16489e-16 3.53553 3.53553
      vertex -1.09254 3.36249 3.53553
      vertex 1.38995e-16 2.26995 4.45503
    endloop
  endfacet
  facet normal -0.0926952 0.585255 0.805534
    outer loop
      vertex -1.09254 3.36249 3.53553
      vertex -0.701454 2.15885 4.45503
      vertex 1.38995e-16 2.26995 4.45503
    endloop
  endfacet
  facet normal -0.269012 0.527966 0.805534
    outer loop
      vertex -1.09254 3.36249 3.53553
      vertex -2.07813 2.86031 3.53553
      vertex -0.701454 2.15885 4.45503
    endloop
  endfacet
  facet normal -0.269012 0.527966 0.805534
    outer loop
      vertex -2.07813 2.86031 3.53553
      vertex -1.33424 1.83643 4.45503
      vertex -0.701454 2.15885 4.45503
    endloop
  endfacet
  facet normal -0.418996 0.418996 0.805534
    outer loop
      vertex -2.07813 2.86031 3.53553
      vertex -2.86031 2.07813 3.53553
      vertex -1.33424 1.83643 4.45503
    endloop
  endfacet
  facet normal -0.418996 0.418996 0.805534
    outer loop
      vertex -2.86031 2.07813 3.53553
      vertex -1.83643 1.33424 4.45503
      vertex -1.33424 1.83643 4.45503
    endloop
  endfacet
  facet normal -0.527966 0.269012 0.805534
    outer loop
      vertex -2.86031 2.07813 3.53553
      vertex -3.36249 1.09254 3.53553
      vertex -1.83643 1.33424 4.45503
    endloop
  endfacet
  facet normal -0.527966 0.269012 0.805534
    outer loop
      vertex -3.36249 1.09254 3.53553
      vertex -2.15885 0.701454 4.45503
      vertex -1.83643 1.33424 4.45503
    endloop
  endfacet
  facet normal -0.585255 0.0926952 0.805534
    outer loop
      vertex -3.36249 1.09254 3.53553
      vertex -3.53553 4.32978e-16 3.53553
      vertex -2.15885 0.701454 4.45503
    endloop
  endfacet
  facet normal -0.585255 0.0926952 0.805534
    outer loop
      vertex -3.53553 4.32978e-16 3.53553
      vertex -2.26995 2.77989e-16 4.45503
      vertex -2.15885 0.701454 4.45503
    endloop
  endfacet
  facet normal -0.585255 -0.0926952 0.805534
    outer loop
      vertex -3.53553 4.32978e-16 3.53553
      vertex -3.36249 -1.09254 3.53553
      vertex -2.26995 2.77989e-16 4.45503
    endloop
  endfacet
  facet normal -0.585255 -0.0926952 0.805534
    outer loop
      vertex -3.36249 -1.09254 3.53553
      vertex -2.15885 -0.701454 4.45503
      vertex -2.26995 2.77989e-16 4.45503
    endloop
  endfacet
  facet normal -0.527966 -0.269012 0.805534
    outer loop
      vertex -3.36249 -1.09254 3.53553
      vertex -2.86031 -2.07813 3.53553
      vertex -2.15885 -0.701454 4.45503
    endloop
  endfacet
  facet normal -0.527966 -0.269012 0.805534
    outer loop
      vertex -2.86031 -2.07813 3.53553
      vertex -1.83643 -1.33424 4.45503
      vertex -2.15885 -0.701454 4.45503
    endloop
  endfacet
  facet normal -0.418996 -0.418996 0.805534
    outer loop
      vertex -2.86031 -2.07813 3.53553
      vertex -2.07813 -2.86031 3.53553
      vertex -1.83643 -1.33424 4.45503
    endloop
  endfacet
  facet normal -0.418996 -0.418996 0.805534
    outer loop
      vertex -2.07813 -2.86031 3.53553
      vertex -1.33424 -1.83643 4.45503
      vertex -1.83643 -1.33424 4.45503
    endloop
  endfacet
  facet normal -0.269012 -0.527966 0.805534
    outer loop
      vertex -2.07813 -2.86031 3.53553
      vertex -1.09254 -3.36249 3.53553
      vertex -1.33424 -1.83643 4.45503
    endloop
  endfacet
  facet normal -0.269012 -0.527966 0.805534
    outer loop
      vertex -1.09254 -3.36249 3.53553
      vertex -0.701454 -2.15885 4.45503
      vertex -1.33424 -1.83643 4.45503
    endloop
  endfacet
  facet normal -0.0926952 -0.585255 0.805534
    outer loop
      vertex -1.09254 -3.36249 3.53553
      vertex -6.49467e-16 -3.53553 3.53553
      vertex -0.701454 -2.15885 4.45503
    endloop
  endfacet
  facet normal -0.0926952 -0.585255 0.805534
    outer loop
      vertex -6.49467e-16 -3.53553 3.53553
      vertex -4.16984e-16 -2.26995 4.45503
      vertex -0.701454 -2.15885 4.45503
    endloop
  endfacet
  facet normal 0.0926952 -0.585255 0.805534
    outer loop
      vertex -6.49467e-16 -3.53553 3.53553
      vertex 1.09254 -3.36249 3.53553
      vertex -4.16984e-16 -2.26995 4.45503
    endloop
  endfacet
  facet normal 0.0926952 -0.585255 0.805534
    outer loop
      vertex 1.09254 -3.36249 3.53553
      vertex 0.701454 -2.15885 4.45503
      vertex -4.16984e-16 -2.26995 4.45503
    endloop
  endfacet
  facet normal 0.269012 -0.527966 0.805534
    outer loop
      vertex 1.09254 -3.36249 3.53553
      vertex 2.07813 -2.86031 3.53553
      vertex 0.701454 -2.15885 4.45503
    endloop
  endfacet
  facet normal 0.269012 -0.527966 0.805534
    outer loop
      vertex 2.07813 -2.86031 3.53553
      vertex 1.33424 -1.83643 4.45503
      vertex 0.701454 -2.15885 4.45503
    endloop
  endfacet
  facet normal 0.418996 -0.418996 0.805534
    outer loop
      vertex 2.07813 -2.86031 3.53553
      vertex 2.86031 -2.07813 3.53553
      vertex 1.33424 -1.83643 4.45503
    endloop
  endfacet
  facet normal 0.418996 -0.418996 0.805534
    outer loop
      vertex 2.86031 -2.07813 3.53553
      vertex 1.83643 -1.33424 4.45503
      vertex 1.33424 -1.83643 4.45503
    endloop
  endfacet
  facet normal 0.527966 -0.269012 0.805534
    outer loop
      vertex 2.86031 -2.07813 3.53553
      vertex 3.36249 -1.09254 3.53553
      vertex 1.83643 -1.33424 4.45503
    endloop
  endfacet
  facet normal 0.527966 -0.269012 0.805534
    outer loop
      vertex 3.36249 -1.09254 3.53553
      vertex 2.15885 -0.701454 4.45503
      vertex 1.83643 -1.33424 4.45503
    endloop
  endfacet
  facet normal 0.585255 -0.0926952 0.805534
    outer loop
      vertex 3.36249 -1.09254 3.53553
      vertex 3.53553 0 3.53553
      vertex 2.15885 -0.701454 4.45503
    endloop
  endfacet
  facet normal 0.585255 -0.0926952 0.805534
    outer loop
      vertex 3.53553 0 3.53553
      vertex 2.26995 0 4.45503
      vertex 2.15885 -0.701454 4.45503
    endloop
  endfacet
  facet normal 0.802456 0.127097 0.583019
    outer loop
      vertex 4.45503 0 2.26995
      vertex 4.23699 1.37668 2.26995
      vertex 3.53553 0 3.53553
    endloop
  endfacet
  facet normal 0.802456 0.127097 0.583019
    outer loop
      vertex 4.23699 1.37668 2.26995
      vertex 3.36249 1.09254 3.53553
      vertex 3.53553 0 3.53553
    endloop
  endfacet
  facet normal 0.723906 0.368849 0.583019
    outer loop
      vertex 4.23699 1.37668 2.26995
      vertex 3.6042 2.6186 2.26995
      vertex 3.36249 1.09254 3.53553
    endloop
  endfacet
  facet normal 0.723906 0.368849 0.583019
    outer loop
      vertex 3.6042 2.6186 2.26995
      vertex 2.86031 2.07813 3.53553
      vertex 3.36249 1.09254 3.53553
    endloop
  endfacet
  facet normal 0.574495 0.574495 0.583019
    outer loop
      vertex 3.6042 2.6186 2.26995
      vertex 2.6186 3.6042 2.26995
      vertex 2.86031 2.07813 3.53553
    endloop
  endfacet
  facet normal 0.574495 0.574495 0.583019
    outer loop
      vertex 2.6186 3.6042 2.26995
      vertex 2.07813 2.86031 3.53553
      vertex 2.86031 2.07813 3.53553
    endloop
  endfacet
  facet normal 0.368849 0.723906 0.583019
    outer loop
      vertex 2.6186 3.6042 2.26995
      vertex 1.37668 4.23699 2.26995
      vertex 2.07813 2.86031 3.53553
    endloop
  endfacet
  facet normal 0.368849 0.723906 0.583019
    outer loop
      vertex 1.37668 4.23699 2.26995
      vertex 1.09254 3.36249 3.53553
      vertex 2.07813 2.86031 3.53553
    endloop
  endfacet
  facet normal 0.127097 0.802456 0.583019
    outer loop
      vertex 1.37668 4.23699 2.26995
      vertex 2.72792e-16 4.45503 2.26995
      vertex 1.09254 3.36249 3.53553
    endloop
  endfacet
  facet normal 0.127097 0.802456 0.583019
    outer loop
      vertex 2.72792e-16 4.45503 2.26995
      vertex 2.16489e-16 3.53553 3.53553
      vertex 1.09254 3.36249 3.53553
    endloop
  endfacet
  facet normal -0.127097 0.802456 0.583019
    outer loop
      vertex 2.72792e-16 4.45503 2.26995
      vertex -1.37668 4.23699 2.26995
      vertex 2.16489e-16 3.53553 3.53553
    endloop
  endfacet
  facet normal -0.127097 0.802456 0.583019
    outer loop
      vertex -1.37668 4.23699 2.26995
      vertex -1.09254 3.36249 3.53553
      vertex 2.16489e-16 3.53553 3.53553
    endloop
  endfacet
  facet normal -0.368849 0.723906 0.583019
    outer loop
      vertex -1.37668 4.23699 2.26995
      vertex -2.6186 3.6042 2.26995
      vertex -1.09254 3.36249 3.53553
    endloop
  endfacet
  facet normal -0.368849 0.723906 0.583019
    outer loop
      vertex -2.6186 3.6042 2.26995
      vertex -2.07813 2.86031 3.53553
      vertex -1.09254 3.36249 3.53553
    endloop
  endfacet
  facet normal -0.574495 0.574495 0.583019
    outer loop
      vertex -2.6186 3.6042 2.26995
      vertex -3.6042 2.6186 2.26995
      vertex -2.07813 2.86031 3.53553
    endloop
  endfacet
  facet normal -0.574495 0.574495 0.583019
    outer loop
      vertex -3.6042 2.6186 2.26995
      vertex -2.86031 2.07813 3.53553
      vertex -2.07813 2.86031 3.53553
    endloop
  endfacet
  facet normal -0.723906 0.368849 0.583019
    outer loop
      vertex -3.6042 2.6186 2.26995
      vertex -4.23699 1.37668 2.26995
      vertex -2.86031 2.07813 3.53553
    endloop
  endfacet
  facet normal -0.723906 0.368849 0.583019
    outer loop
      vertex -4.23699 1.37668 2.26995
      vertex -3.36249 1.09254 3.53553
      vertex -2.86031 2.07813 3.53553
    endloop
  endfacet
  facet normal -0.802456 0.127097 0.583019
    outer loop
      vertex -4.23699 1.37668 2.26995
      vertex -4.45503 5.45584e-16 2.26995
      vertex -3.36249 1.09254 3.53553
    endloop
  endfacet
  facet normal -0.802456 0.127097 0.583019
    outer loop
      vertex -4.45503 5.45584e-16 2.26995
      vertex -3.53553 4.32978e-16 3.53553
      vertex -3.36249 1.09254 3.53553
    endloop
  endfacet
  facet normal -0.802456 -0.127097 0.583019
    outer loop
      vertex -4.45503 5.45584e-16 2.26995
      vertex -4.23699 -1.37668 2.26995
      vertex -3.53553 4.32978e-16 3.53553
    endloop
  endfacet
  facet normal -0.802456 -0.127097 0.583019
    outer loop
      vertex -4.23699 -1.37668 2.26995
      vertex -3.36249 -1.09254 3.53553
      vertex -3.53553 4.32978e-16 3.53553
    endloop
  endfacet
  facet normal -0.723906 -0.368849 0.583019
    outer loop
      vertex -4.23699 -1.37668 2.26995
      vertex -3.6042 -2.6186 2.26995
      vertex -3.36249 -1.09254 3.53553
    endloop
  endfacet
  facet normal -0.723906 -0.368849 0.583019
    outer loop
      vertex -3.6042 -2.6186 2.26995
      vertex -2.86031 -2.07813 3.53553
      vertex -3.36249 -1.09254 3.53553
    endloop
  endfacet
  facet normal -0.574495 -0.574495 0.583019
    outer loop
      vertex -3.6042 -2.6186 2.26995
      vertex -2.6186 -3.6042 2.26995
      vertex -2.86031 -2.07813 3.53553
    endloop
  endfacet
  facet normal -0.574495 -0.574495 0.583019
    outer loop
      vertex -2.6186 -3.6042 2.26995
      vertex -2.07813 -2.86031 3.53553
      vertex -2.86031 -2.07813 3.53553
    endloop
  endfacet
  facet normal -0.368849 -0.723906 0.583019
    outer loop
      vertex -2.6186 -3.6042 2.26995
      vertex -1.37668 -4.23699 2.26995
      vertex -2.07813 -2.86031 3.53553
    endloop
  endfacet
  facet normal -0.368849 -0.723906 0.583019
    outer loop
      vertex -1.37668 -4.23699 2.26995
      vertex -1.09254 -3.36249 3.53553
      vertex -2.07813 -2.86031 3.53553
    endloop
  endfacet
  facet normal -0.127097 -0.802456 0.583019
    outer loop
      vertex -1.37668 -4.23699 2.26995
      vertex -8.18376e-16 -4.45503 2.26995
      vertex -1.09254 -3.36249 3.53553
    endloop
  endfacet
  facet normal -0.127097 -0.802456 0.583019
    outer loop
      vertex -8.18376e-16 -4.45503 2.26995
      vertex -6.49467e-16 -3.53553 3.53553
      vertex -1.09254 -3.36249 3.53553
    endloop
  endfacet
  facet normal 0.127097 -0.802456 0.583019
    outer loop
      vertex -8.18376e-16 -4.45503 2.26995
      vertex 1.37668 -4.23699 2.26995
      vertex -6.49467e-16 -3.53553 3.53553
    endloop
  endfacet
  facet normal 0.127097 -0.802456 0.583019
    outer loop
      vertex 1.37668 -4.23699 2.26995
      vertex 1.09254 -3.36249 3.53553
      vertex -6.49467e-16 -3.53553 3.53553
    endloop
  endfacet
  facet normal 0.368849 -0.723906 0.583019
    outer loop
      vertex 1.37668 -4.23699 2.26995
      vertex 2.6186 -3.6042 2.26995
      vertex 1.09254 -3.36249 3.53553
    endloop
  endfacet
  facet normal 0.368849 -0.723906 0.583019
    outer loop
      vertex 2.6186 -3.6042 2.26995
      vertex 2.07813 -2.86031 3.53553
      vertex 1.09254 -3.36249 3.53553
    endloop
  endfacet
  facet normal 0.574495 -0.574495 0.583019
    outer loop
      vertex 2.6186 -3.6042 2.26995
      vertex 3.6042 -2.6186 2.26995
      vertex 2.07813 -2.86031 3.53553
    endloop
  endfacet
  facet normal 0.574495 -0.574495 0.583019
    outer loop
      vertex 3.6042 -2.6186 2.26995
      vertex 2.86031 -2.07813 3.53553
      vertex 2.07813 -2.86031 3.53553
    endloop
  endfacet
  facet normal 0.723906 -0.368849 0.583019
    outer loop
      vertex 3.6042 -2.6186 2.26995
      vertex 4.23699 -1.37668 2.26995
      vertex 2.86031 -2.07813 3.53553
    endloop
  endfacet
  facet normal 0.723906 -0.368849 0.583019
    outer loop
      vertex 4.23699 -1.37668 2.26995
      vertex 3.36249 -1.09254 3.53553
      vertex 2.86031 -2.07813 3.53553
    endloop
  endfacet
  facet normal 0.802456 -0.127097 0.583019
    outer loop
      vertex 4.23699 -1.37668 2.26995
      vertex 4.45503 0 2.26995
      vertex 3.36249 -1.09254 3.53553
    endloop
  endfacet
  facet normal 0.802456 -0.127097 0.583019
    outer loop
      vertex 4.45503 0 2.26995
      vertex 3.53553 0 3.53553
      vertex 3.36249 -1.09254 3.53553
    endloop
  endfacet
  facet normal 0.940447 0.148952 0.30557
    outer loop
      vertex 4.93844 0 0.782172
      vertex 4.69674 1.52606 0.782172
      vertex 4.45503 0 2.26995
    endloop
  endfacet
  facet normal 0.940447 0.148952 0.30557
    outer loop
      vertex 4.69674 1.52606 0.782172
      vertex 4.23699 1.37668 2.26995
      vertex 4.45503 0 2.26995
    endloop
  endfacet
  facet normal 0.848389 0.432276 0.30557
    outer loop
      vertex 4.69674 1.52606 0.782172
      vertex 3.99528 2.90274 0.782172
      vertex 4.23699 1.37668 2.26995
    endloop
  endfacet
  facet normal 0.848389 0.432276 0.30557
    outer loop
      vertex 3.99528 2.90274 0.782172
      vertex 3.6042 2.6186 2.26995
      vertex 4.23699 1.37668 2.26995
    endloop
  endfacet
  facet normal 0.673286 0.673286 0.30557
    outer loop
      vertex 3.99528 2.90274 0.782172
      vertex 2.90274 3.99528 0.782172
      vertex 3.6042 2.6186 2.26995
    endloop
  endfacet
  facet normal 0.673286 0.673286 0.30557
    outer loop
      vertex 2.90274 3.99528 0.782172
      vertex 2.6186 3.6042 2.26995
      vertex 3.6042 2.6186 2.26995
    endloop
  endfacet
  facet normal 0.432276 0.848389 0.30557
    outer loop
      vertex 2.90274 3.99528 0.782172
      vertex 1.52606 4.69674 0.782172
      vertex 2.6186 3.6042 2.26995
    endloop
  endfacet
  facet normal 0.432276 0.848389 0.30557
    outer loop
      vertex 1.52606 4.69674 0.782172
      vertex 1.37668 4.23699 2.26995
      vertex 2.6186 3.6042 2.26995
    endloop
  endfacet
  facet normal 0.148952 0.940447 0.30557
    outer loop
      vertex 1.52606 4.69674 0.782172
      vertex 3.02392e-16 4.93844 0.782172
      vertex 1.37668 4.23699 2.26995
    endloop
  endfacet
  facet normal 0.148952 0.940447 0.30557
    outer loop
      vertex 3.02392e-16 4.93844 0.782172
      vertex 2.72792e-16 4.45503 2.26995
      vertex 1.37668 4.23699 2.26995
    endloop
  endfacet
  facet normal -0.148952 0.940447 0.30557
    outer loop
      vertex 3.02392e-16 4.93844 0.782172
      vertex -1.52606 4.69674 0.782172
      vertex 2.72792e-16 4.45503 2.26995
    endloop
  endfacet
  facet normal -0.148952 0.940447 0.30557
    outer loop
      vertex -1.52606 4.69674 0.782172
      vertex -1.37668 4.23699 2.26995
      vertex 2.72792e-16 4.45503 2.26995
    endloop
  endfacet
  facet normal -0.432276 0.848389 0.30557
    outer loop
      vertex -1.52606 4.69674 0.782172
      vertex -2.90274 3.99528 0.782172
      vertex -1.37668 4.23699 2.26995
    endloop
  endfacet
  facet normal -0.432276 0.848389 0.30557
    outer loop
      vertex -2.90274 3.99528 0.782172
      vertex -2.6186 3.6042 2.26995
      vertex -1.37668 4.23699 2.26995
    endloop
  endfacet
  facet normal -0.673286 0.673286 0.30557
    outer loop
      vertex -2.90274 3.99528 0.782172
      vertex -3.99528 2.90274 0.782172
      vertex -2.6186 3.6042 2.26995
    endloop
  endfacet
  facet normal -0.673286 0.673286 0.30557
    outer loop
      vertex -3.99528 2.90274 0.782172
      vertex -3.6042 2.6186 2.26995
      vertex -2.6186 3.6042 2.26995
    endloop
  endfacet
  facet normal -0.848389 0.432276 0.30557
    outer loop
      vertex -3.99528 2.90274 0.782172
      vertex -4.69674 1.52606 0.782172
      vertex -3.6042 2.6186 2.26995
    endloop
  endfacet
  facet normal -0.848389 0.432276 0.30557
    outer loop
      vertex -4.69674 1.52606 0.782172
      vertex -4.23699 1.37668 2.26995
      vertex -3.6042 2.6186 2.26995
    endloop
  endfacet
  facet normal -0.940447 0.148952 0.30557
    outer loop
      vertex -4.69674 1.52606 0.782172
      vertex -4.93844 6.04785e-16 0.782172
      vertex -4.23699 1.37668 2.26995
    endloop
  endfacet
  facet normal -0.940447 0.148952 0.30557
    outer loop
      vertex -4.93844 6.04785e-16 0.782172
      vertex -4.45503 5.45584e-16 2.26995
      vertex -4.23699 1.37668 2.26995
    endloop
  endfacet
  facet normal -0.940447 -0.148952 0.30557
    outer loop
      vertex -4.93844 6.04785e-16 0.782172
      vertex -4.69674 -1.52606 0.782172
      vertex -4.45503 5.45584e-16 2.26995
    endloop
  endfacet
  facet normal -0.940447 -0.148952 0.30557
    outer loop
      vertex -4.69674 -1.52606 0.782172
      vertex -4.23699 -1.37668 2.26995
      vertex -4.45503 5.45584e-16 2.26995
    endloop
  endfacet
  facet normal -0.848389 -0.432276 0.30557
    outer loop
      vertex -4.69674 -1.52606 0.782172
      vertex -3.99528 -2.90274 0.782172
      vertex -4.23699 -1.37668 2.26995
    endloop
  endfacet
  facet normal -0.848389 -0.432276 0.30557
    outer loop
      vertex -3.99528 -2.90274 0.782172
      vertex -3.6042 -2.6186 2.26995
      vertex -4.23699 -1.37668 2.26995
    endloop
  endfacet
  facet normal -0.673286 -0.673286 0.30557
    outer loop
      vertex -3.99528 -2.90274 0.782172
      vertex -2.90274 -3.99528 0.782172
      vertex -3.6042 -2.6186 2.26995
    endloop
  endfacet
  facet normal -0.673286 -0.673286 0.30557
    outer loop
      vertex -2.90274 -3.99528 0.782172
      vertex -2.6186 -3.6042 2.26995
      vertex -3.6042 -2.6186 2.26995
    endloop
  endfacet
  facet normal -0.432276 -0.848389 0.30557
    outer loop
      vertex -2.90274 -3.99528 0.782172
      vertex -1.52606 -4.69674 0.782172
      vertex -2.6186 -3.6042 2.26995
    endloop
  endfacet
  facet normal -0.432276 -0.848389 0.30557
    outer loop
      vertex -1.52606 -4.69674 0.782172
      vertex -1.37668 -4.23699 2.26995
      vertex -2.6186 -3.6042 2.26995
    endloop
  endfacet
  facet normal -0.148952 -0.940447 0.30557
    outer loop
      vertex -1.52606 -4.69674 0.782172
      vertex -9.07177e-16 -4.93844 0.782172
      vertex -1.37668 -4.23699 2.26995
    endloop
  endfacet
  facet normal -0.148952 -0.940447 0.30557
    outer loop
      vertex -9.07177e-16 -4.93844 0.782172
      vertex -8.18376e-16 -4.45503 2.26995
      vertex -1.37668 -4.23699 2.26995
    endloop
  endfacet
  facet normal 0.148952 -0.940447 0.30557
    outer loop
      vertex -9.07177e-16 -4.93844 0.782172
      vertex 1.52606 -4.69674 0.782172
      vertex -8.18376e-16 -4.45503 2.26995
    endloop
  endfacet
  facet normal 0.148952 -0.940447 0.30557
    outer loop
      vertex 1.52606 -4.69674 0.782172
      vertex 1.37668 -4.23699 2.26995
      vertex -8.18376e-16 -4.45503 2.26995
    endloop
  endfacet
  facet normal 0.432276 -0.848389 0.30557
    outer loop
      vertex 1.52606 -4.69674 0.782172
      vertex 2.90274 -3.99528 0.782172
      vertex 1.37668 -4.23699 2.26995
    endloop
  endfacet
  facet normal 0.432276 -0.848389 0.30557
    outer loop
      vertex 2.90274 -3.99528 0.782172
      vertex 2.6186 -3.6042 2.26995
      vertex 1.37668 -4.23699 2.26995
    endloop
  endfacet
  facet normal 0.673286 -0.673286 0.30557
    outer loop
      vertex 2.90274 -3.99528 0.782172
      vertex 3.99528 -2.90274 0.782172
      vertex 2.6186 -3.6042 2.26995
    endloop
  endfacet
  facet normal 0.673286 -0.673286 0.30557
    outer loop
      vertex 3.99528 -2.90274 0.782172
      vertex 3.6042 -2.6186 2.26995
      vertex 2.6186 -3.6042 2.26995
    endloop
  endfacet
  facet normal 0.848389 -0.432276 0.30557
    outer loop
      vertex 3.99528 -2.90274 0.782172
      vertex 4.69674 -1.52606 0.782172
      vertex 3.6042 -2.6186 2.26995
    endloop
  endfacet
  facet normal 0.848389 -0.432276 0.30557
    outer loop
      vertex 4.69674 -1.52606 0.782172
      vertex 4.23699 -1.37668 2.26995
      vertex 3.6042 -2.6186 2.26995
    endloop
  endfacet
  facet normal 0.940447 -0.148952 0.30557
    outer loop
      vertex 4.69674 -1.52606 0.782172
      vertex 4.93844 0 0.782172
      vertex 4.23699 -1.37668 2.26995
    endloop
  endfacet
  facet normal 0.940447 -0.148952 0.30557
    outer loop
      vertex 4.93844 0 0.782172
      vertex 4.45503 0 2.26995
      vertex 4.23699 -1.37668 2.26995
    endloop
  endfacet
  facet normal 0.987688 0.156434 -0
    outer loop
      vertex 4.93844 0 -0.782172
      vertex 4.69674 1.52606 -0.782172
      vertex 4.93844 0 0.782172
    endloop
  endfacet
  facet normal 0.987688 0.156434 -0
    outer loop
      vertex 4.69674 1.52606 -0.782172
      vertex 4.69674 1.52606 0.782172
      vertex 4.93844 0 0.782172
    endloop
  endfacet
  facet normal 0.891007 0.45399 -0
    outer loop
      vertex 4.69674 1.52606 -0.782172
      vertex 3.99528 2.90274 -0.782172
      vertex 4.69674 1.52606 0.782172
    endloop
  endfacet
  facet normal 0.891007 0.45399 -0
    outer loop
      vertex 3.99528 2.90274 -0.782172
      vertex 3.99528 2.90274 0.782172
      vertex 4.69674 1.52606 0.782172
    endloop
  endfacet
  facet normal 0.707107 0.707107 -0
    outer loop
      vertex 3.99528 2.90274 -0.782172
      vertex 2.90274 3.99528 -0.782172
      vertex 3.99528 2.90274 0.782172
    endloop
  endfacet
  facet normal 0.707107 0.707107 -0
    outer loop
      vertex 2.90274 3.99528 -0.782172
      vertex 2.90274 3.99528 0.782172
      vertex 3.99528 2.90274 0.782172
    endloop
  endfacet
  facet normal 0.45399 0.891007 -0
    outer loop
      vertex 2.90274 3.99528 -0.782172
      vertex 1.52606 4.69674 -0.782172
      vertex 2.90274 3.99528 0.782172
    endloop
  endfacet
  facet normal 0.45399 0.891007 -0
    outer loop
      vertex 1.52606 4.69674 -0.782172
      vertex 1.52606 4.69674 0.782172
      vertex 2.90274 3.99528 0.782172
    endloop
  endfacet
  facet normal 0.156434 0.987688 -0
    outer loop
      vertex 1.52606 4.69674 -0.782172
      vertex 3.02392e-16 4.93844 -0.782172
      vertex 1.52606 4.69674 0.782172
    endloop
  endfacet
  facet normal 0.156434 0.987688 -0
    outer loop
      vertex 3.02392e-16 4.93844 -0.782172
      vertex 3.02392e-16 4.93844 0.782172
      vertex 1.52606 4.69674 0.782172
    endloop
  endfacet
  facet normal -0.156434 0.987688 0
    outer loop
      vertex 3.02392e-16 4.93844 -0.782172
      vertex -1.52606 4.69674 -0.782172
      vertex 3.02392e-16 4.93844 0.782172
    endloop
  endfacet
  facet normal -0.156434 0.987688 0
    outer loop
      vertex -1.52606 4.69674 -0.782172
      vertex -1.52606 4.69674 0.782172
      vertex 3.02392e-16 4.93844 0.782172
    endloop
  endfacet
  facet normal -0.45399 0.891007 0
    outer loop
      vertex -1.52606 4.69674 -0.782172
      vertex -2.90274 3.99528 -0.782172
      vertex -1.52606 4.69674 0.782172
    endloop
  endfacet
  facet normal -0.45399 0.891007 0
    outer loop
      vertex -2.90274 3.99528 -0.782172
      vertex -2.90274 3.99528 0.782172
      vertex -1.52606 4.69674 0.782172
    endloop
  endfacet
  facet normal -0.707107 0.707107 0
    outer loop
      vertex -2.90274 3.99528 -0.782172
      vertex -3.99528 2.90274 -0.782172
      vertex -2.90274 3.99528 0.782172
    endloop
  endfacet
  facet normal -0.707107 0.707107 0
    outer loop
      vertex -3.99528 2.90274 -0.782172
      vertex -3.99528 2.90274 0.782172
      vertex -2.90274 3.99528 0.782172
    endloop
  endfacet
  facet normal -0.891007 0.45399 0
    outer loop
      vertex -3.99528 2.90274 -0.782172
      vertex -4.69674 1.52606 -0.782172
      vertex -3.99528 2.90274 0.782172
    endloop
  endfacet
  facet normal -0.891007 0.45399 0
    outer loop
      vertex -4.69674 1.52606 -0.782172
      vertex -4.69674 1.52606 0.782172
      vertex -3.99528 2.90274 0.782172
    endloop
  endfacet
  facet normal -0.987688 0.156434 0
    outer loop
      vertex -4.69674 1.52606 -0.782172
      vertex -4.93844 6.04785e-16 -0.782172
      vertex -4.69674 1.52606 0.782172
    endloop
  endfacet
  facet normal -0.987688 0.156434 0
    outer loop
      vertex -4.93844 6.04785e-16 -0.782172
      vertex -4.93844 6.04785e-16 0.782172
      vertex -4.69674 1.52606 0.782172
    endloop
  endfacet
  facet normal -0.987688 -0.156434 0
    outer loop
      vertex -4.93844 6.04785e-16 -0.782172
      vertex -4.69674 -1.52606 -0.782172
      vertex -4.93844 6.04785e-16 0.782172
    endloop
  endfacet
  facet normal -0.987688 -0.156434 0
    outer loop
      vertex -4.69674 -1.52606 -0.782172
      vertex -4.69674 -1.52606 0.782172
      vertex -4.93844 6.04785e-16 0.782172
    endloop
  endfacet
  facet normal -0.891007 -0.45399 0
    outer loop
      vertex -4.69674 -1.52606 -0.782172
      vertex -3.99528 -2.90274 -0.782172
      vertex -4.69674 -1.52606 0.782172
    endloop
  endfacet
  facet normal -0.891007 -0.45399 0
    outer loop
      vertex -3.99528 -2.90274 -0.782172
      vertex -3.99528 -2.90274 0.782172
      vertex -4.69674 -1.52606 0.782172
    endloop
  endfacet
  facet normal -0.707107 -0.707107 0
    outer loop
      vertex -3.99528 -2.90274 -0.782172
      vertex -2.90274 -3.99528 -0.782172
      vertex -3.99528 -2.90274 0.782172
    endloop
  endfacet
  facet normal -0.707107 -0.707107 0
    outer loop
      vertex -2.90274 -3.99528 -0.782172
      vertex -2.90274 -3.99528 0.782172
      vertex -3.99528 -2.90274 0.782172
    endloop
  endfacet
  facet normal -0.45399 -0.891007 0
    outer loop
      vertex -2.90274 -3.99528 -0.782172
      vertex -1.52606 -4.69674 -0.782172
      vertex -2.90274 -3.99528 0.782172
    endloop
  endfacet
  facet normal -0.45399 -0.891007 0
    outer loop
      vertex -1.52606 -4.69674 -0.782172
      vertex -1.52606 -4.69674 0.782172
      vertex -2.90274 -3.99528 0.782172
    endloop
  endfacet
  facet normal -0.156434 -0.987688 0
    outer loop
      vertex -1.52606 -4.69674 -0.782172
      vertex -9.07177e-16 -4.93844 -0.782172
      vertex -1.52606 -4.69674 0.782172
    endloop
  endfacet
  facet normal -0.156434 -0.987688 0
    outer loop
      vertex -9.07177e-16 -4.93844 -0.782172
      vertex -9.07177e-16 -4.93844 0.782172
      vertex -1.52606 -4.69674 0.782172
    endloop
  endfacet
  facet normal 0.156434 -0.987688 0
    outer loop
      vertex -9.07177e-16 -4.93844 -0.782172
      vertex 1.52606 -4.69674 -0.782172
      vertex -9.07177e-16 -4.93844 0.782172
    endloop
  endfacet
  facet normal 0.156434 -0.987688 0
    outer loop
      vertex 1.52606 -4.69674 -0.782172
      vertex 1.52606 -4.69674 0.782172
      vertex -9.07177e-16 -4.93844 0.782172
    endloop
  endfacet
  facet normal 0.45399 -0.891007 0
    outer loop
      vertex 1.52606 -4.69674 -0.782172
      vertex 2.90274 -3.99528 -0.782172
      vertex 1.52606 -4.69674 0.782172
    endloop
  endfacet
  facet normal 0.45399 -0.891007 0
    outer loop
      vertex 2.90274 -3.99528 -0.782172
      vertex 2.90274 -3.99528 0.782172
      vertex 1.52606 -4.69674 0.782172
    endloop
  endfacet
  facet normal 0.707107 -0.707107 0
    outer loop
      vertex 2.90274 -3.99528 -0.782172
      vertex 3.99528 -2.90274 -0.782172
      vertex 2.90274 -3.99528 0.782172
    endloop
  endfacet
  facet normal 0.707107 -0.707107 0
    outer loop
      vertex 3.99528 -2.90274 -0.782172
      vertex 3.99528 -2.90274 0.782172
      vertex 2.90274 -3.99528 0.782172
    endloop
  endfacet
  facet normal 0.891007 -0.45399 0
    outer loop
      vertex 3.99528 -2.90274 -0.782172
      vertex 4.69674 -1.52606 -0.782172
      vertex 3.99528 -2.90274 0.782172
    endloop
  endfacet
  facet normal 0.891007 -0.45399 0
    outer loop
      vertex 4.69674 -1.52606 -0.782172
      vertex 4.69674 -1.52606 0.782172
      vertex 3.99528 -2.90274 0.782172
    endloop
  endfacet
  facet normal 0.987688 -0.156434 0
    outer loop
      vertex 4.69674 -1.52606 -0.782172
      vertex 4.93844 0 -0.782172
      vertex 4.69674 -1.52606 0.782172
    endloop
  endfacet
  facet normal 0.987688 -0.156434 0
    outer loop
      vertex 4.93844 0 -0.782172
      vertex 4.93844 0 0.782172
      vertex 4.69674 -1.52606 0.782172
    endloop
  endfacet
  facet normal 0.940447 0.148952 -0.30557
    outer loop
      vertex 4.45503 0 -2.26995
      vertex 4.23699 1.37668 -2.26995
      vertex 4.93844 0 -0.782172
    endloop
  endfacet
  facet normal 0.940447 0.148952 -0.30557
    outer loop
      vertex 4.23699 1.37668 -2.26995
      vertex 4.69674 1.52606 -0.782172
      vertex 4.93844 0 -0.782172
    endloop
  endfacet
  facet normal 0.848389 0.432276 -0.30557
    outer loop
      vertex 4.23699 1.37668 -2.26995
      vertex 3.6042 2.6186 -2.26995
      vertex 4.69674 1.52606 -0.782172
    endloop
  endfacet
  facet normal 0.848389 0.432276 -0.30557
    outer loop
      vertex 3.6042 2.6186 -2.26995
      vertex 3.99528 2.90274 -0.782172
      vertex 4.69674 1.52606 -0.782172
    endloop
  endfacet
  facet normal 0.673286 0.673286 -0.30557
    outer loop
      vertex 3.6042 2.6186 -2.26995
      vertex 2.6186 3.6042 -2.26995
      vertex 3.99528 2.90274 -0.782172
    endloop
  endfacet
  facet normal 0.673286 0.673286 -0.30557
    outer loop
      vertex 2.6186 3.6042 -2.26995
      vertex 2.90274 3.99528 -0.782172
      vertex 3.99528 2.90274 -0.782172
    endloop
  endfacet
  facet normal 0.432276 0.848389 -0.30557
    outer loop
      vertex 2.6186 3.6042 -2.26995
      vertex 1.37668 4.23699 -2.26995
      vertex 2.90274 3.99528 -0.782172
    endloop
  endfacet
  facet normal 0.432276 0.848389 -0.30557
    outer loop
      vertex 1.37668 4.23699 -2.26995
      vertex 1.52606 4.69674 -0.782172
      vertex 2.90274 3.99528 -0.782172
    endloop
  endfacet
  facet normal 0.148952 0.940447 -0.30557
    outer loop
      vertex 1.37668 4.23699 -2.26995
      vertex 2.72792e-16 4.45503 -2.26995
      vertex 1.52606 4.69674 -0.782172
    endloop
  endfacet
  facet normal 0.148952 0.940447 -0.30557
    outer loop
      vertex 2.72792e-16 4.45503 -2.26995
      vertex 3.02392e-16 4.93844 -0.782172
      vertex 1.52606 4.69674 -0.782172
    endloop
  endfacet
  facet normal -0.148952 0.940447 -0.30557
    outer loop
      vertex 2.72792e-16 4.45503 -2.26995
      vertex -1.37668 4.23699 -2.26995
      vertex 3.02392e-16 4.93844 -0.782172
    endloop
  endfacet
  facet normal -0.148952 0.940447 -0.30557
    outer loop
      vertex -1.37668 4.23699 -2.26995
      vertex -1.52606 4.69674 -0.782172
      vertex 3.02392e-16 4.93844 -0.782172
    endloop
  endfacet
  facet normal -0.432276 0.848389 -0.30557
    outer loop
      vertex -1.37668 4.23699 -2.26995
      vertex -2.6186 3.6042 -2.26995
      vertex -1.52606 4.69674 -0.782172
    endloop
  endfacet
  facet normal -0.432276 0.848389 -0.30557
    outer loop
      vertex -2.6186 3.6042 -2.26995
      vertex -2.90274 3.99528 -0.782172
      vertex -1.52606 4.69674 -0.782172
    endloop
  endfacet
  facet normal -0.673286 0.673286 -0.30557
    outer loop
      vertex -2.6186 3.6042 -2.26995
      vertex -3.6042 2.6186 -2.26995
      vertex -2.90274 3.99528 -0.782172
    endloop
  endfacet
  facet normal -0.673286 0.673286 -0.30557
    outer loop
      vertex -3.6042 2.6186 -2.26995
      vertex -3.99528 2.90274 -0.782172
      vertex -2.90274 3.99528 -0.782172
    endloop
  endfacet
  facet normal -0.848389 0.432276 -0.30557
    outer loop
      vertex -3.6042 2.6186 -2.26995
      vertex -4.23699 1.37668 -2.26995
      vertex -3.99528 2.90274 -0.782172
    endloop
  endfacet
  facet normal -0.848389 0.432276 -0.30557
    outer loop
      vertex -4.23699 1.37668 -2.26995
      vertex -4.69674 1.52606 -0.782172
      vertex -3.99528 2.90274 -0.782172
    endloop
  endfacet
  facet normal -0.940447 0.148952 -0.30557
    outer loop
      vertex -4.23699 1.37668 -2.26995
      vertex -4.45503 5.45584e-16 -2.26995
      vertex -4.69674 1.52606 -0.782172
    endloop
  endfacet
  facet normal -0.940447 0.148952 -0.30557
    outer loop
      vertex -4.45503 5.45584e-16 -2.26995
      vertex -4.93844 6.04785e-16 -0.782172
      vertex -4.69674 1.52606 -0.782172
    endloop
  endfacet
  facet normal -0.940447 -0.148952 -0.30557
    outer loop
      vertex -4.45503 5.45584e-16 -2.26995
      vertex -4.23699 -1.37668 -2.26995
      vertex -4.93844 6.04785e-16 -0.782172
    endloop
  endfacet
  facet normal -0.940447 -0.148952 -0.30557
    outer loop
      vertex -4.23699 -1.37668 -2.26995
      vertex -4.69674 -1.52606 -0.782172
      vertex -4.93844 6.04785e-16 -0.782172
    endloop
  endfacet
  facet normal -0.848389 -0.432276 -0.30557
    outer loop
      vertex -4.23699 -1.37668 -2.26995
      vertex -3.6042 -2.6186 -2.26995
      vertex -4.69674 -1.52606 -0.782172
    endloop
  endfacet
  facet normal -0.848389 -0.432276 -0.30557
    outer loop
      vertex -3.6042 -2.6186 -2.26995
      vertex -3.99528 -2.90274 -0.782172
      vertex -4.69674 -1.52606 -0.782172
    endloop
  endfacet
  facet normal -0.673286 -0.673286 -0.30557
    outer loop
      vertex -3.6042 -2.6186 -2.26995
      vertex -2.6186 -3.6042 -2.26995
      vertex -3.99528 -2.90274 -0.782172
    endloop
  endfacet
  facet normal -0.673286 -0.673286 -0.30557
    outer loop
      vertex -2.6186 -3.6042 -2.26995
      vertex -2.90274 -3.99528 -0.782172
      vertex -3.99528 -2.90274 -0.782172
    endloop
  endfacet
  facet normal -0.432276 -0.848389 -0.30557
    outer loop
      vertex -2.6186 -3.6042 -2.26995
      vertex -1.37668 -4.23699 -2.26995
      vertex -2.90274 -3.99528 -0.782172
    endloop
  endfacet
  facet normal -0.432276 -0.848389 -0.30557
    outer loop
      vertex -1.37668 -4.23699 -2.26995
      vertex -1.52606 -4.69674 -0.782172
      vertex -2.90274 -3.99528 -0.782172
    endloop
  endfacet
  facet normal -0.148952 -0.940447 -0.30557
    outer loop
      vertex -1.37668 -4.23699 -2.26995
      vertex -8.18376e-16 -4.45503 -2.26995
      vertex -1.52606 -4.69674 -0.782172
    endloop
  endfacet
  facet normal -0.148952 -0.940447 -0.30557
    outer loop
      vertex -8.18376e-16 -4.45503 -2.26995
      vertex -9.07177e-16 -4.93844 -0.782172
      vertex -1.52606 -4.69674 -0.782172
    endloop
  endfacet
  facet normal 0.148952 -0.940447 -0.30557
    outer loop
      vertex -8.18376e-16 -4.45503 -2.26995
      vertex 1.37668 -4.23699 -2.26995
      vertex -9.07177e-16 -4.93844 -0.782172
    endloop
  endfacet
  facet normal 0.148952 -0.940447 -0.30557
    outer loop
      vertex 1.37668 -4.23699 -2.26995
      vertex 1.52606 -4.69674 -0.782172
      vertex -9.07177e-16 -4.93844 -0.782172
    endloop
  endfacet
  facet normal 0.432276 -0.848389 -0.30557
    outer loop
      vertex 1.37668 -4.23699 -2.26995
      vertex 2.6186 -3.6042 -2.26995
      vertex 1.52606 -4.69674 -0.782172
    endloop
  endfacet
  facet normal 0.432276 -0.848389 -0.30557
    outer loop
      vertex 2.6186 -3.6042 -2.26995
      vertex 2.90274 -3.99528 -0.782172
      vertex 1.52606 -4.69674 -0.782172
    endloop
  endfacet
  facet normal 0.673286 -0.673286 -0.30557
    outer loop
      vertex 2.6186 -3.6042 -2.26995
      vertex 3.6042 -2.6186 -2.26995
      vertex 2.90274 -3.99528 -0.782172
    endloop
  endfacet
  facet normal 0.673286 -0.673286 -0.30557
    outer loop
      vertex 3.6042 -2.6186 -2.26995
      vertex 3.99528 -2.90274 -0.782172
      vertex 2.90274 -3.99528 -0.782172
    endloop
  endfacet
  facet normal 0.848389 -0.432276 -0.30557
    outer loop
      vertex 3.6042 -2.6186 -2.26995
      vertex 4.23699 -1.37668 -2.26995
      vertex 3.99528 -2.90274 -0.782172
    endloop
  endfacet
  facet normal 0.848389 -0.432276 -0.30557
    outer loop
      vertex 4.23699 -1.37668 -2.26995
      vertex 4.69674 -1.52606 -0.782172
      vertex 3.99528 -2.90274 -0.782172
    endloop
  endfacet
  facet normal 0.940447 -0.148952 -0.30557
    outer loop
      vertex 4.23699 -1.37668 -2.26995
      vertex 4.45503 0 -2.26995
      vertex 4.69674 -1.52606 -0.782172
    endloop
  endfacet
  facet normal 0.940447 -0.148952 -0.30557
    outer loop
      vertex 4.45503 0 -2.26995
      vertex 4.93844 0 -0.782172
      vertex 4.69674 -1.52606 -0.782172
    endloop
  endfacet
  facet normal 0.802456 0.127097 -0.583019
    outer loop
      vertex 3.53553 0 -3.53553
      vertex 3.36249 1.09254 -3.53553
      vertex 4.45503 0 -2.26995
    endloop
  endfacet
  facet normal 0.802456 0.127097 -0.583019
    outer loop
      vertex 3.36249 1.09254 -3.53553
      vertex 4.23699 1.37668 -2.26995
      vertex 4.45503 0 -2.26995
    endloop
  endfacet
  facet normal 0.723906 0.368849 -0.583019
    outer loop
      vertex 3.36249 1.09254 -3.53553
      vertex 2.86031 2.07813 -3.53553
      vertex 4.23699 1.37668 -2.26995
    endloop
  endfacet
  facet normal 0.723906 0.368849 -0.583019
    outer loop
      vertex 2.86031 2.07813 -3.53553
      vertex 3.6042 2.6186 -2.26995
      vertex 4.23699 1.37668 -2.26995
    endloop
  endfacet
  facet normal 0.574495 0.574495 -0.583019
    outer loop
      vertex 2.86031 2.07813 -3.53553
      vertex 2.07813 2.86031 -3.53553
      vertex 3.6042 2.6186 -2.26995
    endloop
  endfacet
  facet normal 0.574495 0.574495 -0.583019
    outer loop
      vertex 2.07813 2.86031 -3.53553
      vertex 2.6186 3.6042 -2.26995
      vertex 3.6042 2.6186 -2.26995
    endloop
  endfacet
  facet normal 0.368849 0.723906 -0.583019
    outer loop
      vertex 2.07813 2.86031 -3.53553
      vertex 1.09254 3.36249 -3.53553
      vertex 2.6186 3.6042 -2.26995
    endloop
  endfacet
  facet normal 0.368849 0.723906 -0.583019
    outer loop
      vertex 1.09254 3.36249 -3.53553
      vertex 1.37668 4.23699 -2.26995
      vertex 2.6186 3.6042 -2.26995
    endloop
  endfacet
  facet normal 0.127097 0.802456 -0.583019
    outer loop
      vertex 1.09254 3.36249 -3.53553
      vertex 2.16489e-16 3.53553 -3.53553
      vertex 1.37668 4.23699 -2.26995
    endloop
  endfacet
  facet normal 0.127097 0.802456 -0.583019
    outer loop
      vertex 2.16489e-16 3.53553 -3.53553
      vertex 2.72792e-16 4.45503 -2.26995
      vertex 1.37668 4.23699 -2.26995
    endloop
  endfacet
  facet normal -0.127097 0.802456 -0.583019
    outer loop
      vertex 2.16489e-16 3.53553 -3.53553
      vertex -1.09254 3.36249 -3.53553
      vertex 2.72792e-16 4.45503 -2.26995
    endloop
  endfacet
  facet normal -0.127097 0.802456 -0.583019
    outer loop
      vertex -1.09254 3.36249 -3.53553
      vertex -1.37668 4.23699 -2.26995
      vertex 2.72792e-16 4.45503 -2.26995
    endloop
  endfacet
  facet normal -0.368849 0.723906 -0.583019
    outer loop
      vertex -1.09254 3.36249 -3.53553
      vertex -2.07813 2.86031 -3.53553
      vertex -1.37668 4.23699 -2.26995
    endloop
  endfacet
  facet normal -0.368849 0.723906 -0.583019
    outer loop
      vertex -2.07813 2.86031 -3.53553
      vertex -2.6186 3.6042 -2.26995
      vertex -1.37668 4.23699 -2.26995
    endloop
  endfacet
  facet normal -0.574495 0.574495 -0.583019
    outer loop
      vertex -2.07813 2.86031 -3.53553
      vertex -2.86031 2.07813 -3.53553
      vertex -2.6186 3.6042 -2.26995
    endloop
  endfacet
  facet normal -0.574495 0.574495 -0.583019
    outer loop
      vertex -2.86031 2.07813 -3.53553
      vertex -3.6042 2.6186 -2.26995
      vertex -2.6186 3.6042 -2.26995
    endloop
  endfacet
  facet normal -0.723906 0.368849 -0.583019
    outer loop
      vertex -2.86031 2.07813 -3.53553
      vertex -3.36249 1.09254 -3.53553
      vertex -3.6042 2.6186 -2.26995
    endloop
  endfacet
  facet normal -0.723906 0.368849 -0.583019
    outer loop
      vertex -3.36249 1.09254 -3.53553
      vertex -4.23699 1.37668 -2.26995
      vertex -3.6042 2.6186 -2.26995
    endloop
  endfacet
  facet normal -0.802456 0.127097 -0.583019
    outer loop
      vertex -3.36249 1.09254 -3.53553
      vertex -3.53553 4.32978e-16 -3.53553
      vertex -4.23699 1.37668 -2.26995
    endloop
  endfacet
  facet normal -0.802456 0.127097 -0.583019
    outer loop
      vertex -3.53553 4.32978e-16 -3.53553
      vertex -4.45503 5.45584e-16 -2.26995
      vertex -4.23699 1.37668 -2.26995
    endloop
  endfacet
  facet normal -0.802456 -0.127097 -0.583019
    outer loop
      vertex -3.53553 4.32978e-16 -3.53553
      vertex -3.36249 -1.09254 -3.53553
      vertex -4.45503 5.45584e-16 -2.26995
    endloop
  endfacet
  facet normal -0.802456 -0.127097 -0.583019
    outer loop
      vertex -3.36249 -1.09254 -3.53553
      vertex -4.23699 -1.37668 -2.26995
      vertex -4.45503 5.45584e-16 -2.26995
    endloop
  endfacet
  facet normal -0.723906 -0.368849 -0.583019
    outer loop
      vertex -3.36249 -1.09254 -3.53553
      vertex -2.86031 -2.07813 -3.53553
      vertex -4.23699 -1.37668 -2.26995
    endloop
  endfacet
  facet normal -0.723906 -0.368849 -0.583019
    outer loop
      vertex -2.86031 -2.07813 -3.53553
      vertex -3.6042 -2.6186 -2.26995
      vertex -4.23699 -1.37668 -2.26995
    endloop
  endfacet
  facet normal -0.574495 -0.574495 -0.583019
    outer loop
      vertex -2.86031 -2.07813 -3.53553
      vertex -2.07813 -2.86031 -3.53553
      vertex -3.6042 -2.6186 -2.26995
    endloop
  endfacet
  facet normal -0.574495 -0.574495 -0.583019
    outer loop
      vertex -2.07813 -2.86031 -3.53553
      vertex -2.6186 -3.6042 -2.26995
      vertex -3.6042 -2.6186 -2.26995
    endloop
  endfacet
  facet normal -0.368849 -0.723906 -0.583019
    outer loop
      vertex -2.07813 -2.86031 -3.53553
      vertex -1.09254 -3.36249 -3.53553
      vertex -2.6186 -3.6042 -2.26995
    endloop
  endfacet
  facet normal -0.368849 -0.723906 -0.583019
    outer loop
      vertex -1.09254 -3.36249 -3.53553
      vertex -1.37668 -4.23699 -2.26995
      vertex -2.6186 -3.6042 -2.26995
    endloop
  endfacet
  facet normal -0.127097 -0.802456 -0.583019
    outer loop
      vertex -1.09254 -3.36249 -3.53553
      vertex -6.49467e-16 -3.53553 -3.53553
      vertex -1.37668 -4.23699 -2.26995
    endloop
  endfacet
  facet normal -0.127097 -0.802456 -0.583019
    outer loop
      vertex -6.49467e-16 -3.53553 -3.53553
      vertex -8.18376e-16 -4.45503 -2.26995
      vertex -1.37668 -4.23699 -2.26995
    endloop
  endfacet
  facet normal 0.127097 -0.802456 -0.583019
    outer loop
      vertex -6.49467e-16 -3.53553 -3.53553
      vertex 1.09254 -3.36249 -3.53553
      vertex -8.18376e-16 -4.45503 -2.26995
    endloop
  endfacet
  facet normal 0.127097 -0.802456 -0.583019
    outer loop
      vertex 1.09254 -3.36249 -3.53553
      vertex 1.37668 -4.23699 -2.26995
      vertex -8.18376e-16 -4.45503 -2.26995
    endloop
  endfacet
  facet normal 0.368849 -0.723906 -0.583019
    outer loop
      vertex 1.09254 -3.36249 -3.53553
      vertex 2.07813 -2.86031 -3.53553
      vertex 1.37668 -4.23699 -2.26995
    endloop
  endfacet
  facet normal 0.368849 -0.723906 -0.583019
    outer loop
      vertex 2.07813 -2.86031 -3.53553
      vertex 2.6186 -3.6042 -2.26995
      vertex 1.37668 -4.23699 -2.26995
    endloop
  endfacet
  facet normal 0.574495 -0.574495 -0.583019
    outer loop
      vertex 2.07813 -2.86031 -3.53553
      vertex 2.86031 -2.07813 -3.53553
      vertex 2.6186 -3.6042 -2.26995
    endloop
  endfacet
  facet normal 0.574495 -0.574495 -0.583019
    outer loop
      vertex 2.86031 -2.07813 -3.53553
      vertex 3.6042 -2.6186 -2.26995
      vertex 2.6186 -3.6042 -2.26995
    endloop
  endfacet
  facet normal 0.723906 -0.368849 -0.583019
    outer loop
      vertex 2.86031 -2.07813 -3.53553
      vertex 3.36249 -1.09254 -3.53553
      vertex 3.6042 -2.6186 -2.26995
    endloop
  endfacet
  facet normal 0.723906 -0.368849 -0.583019
    outer loop
      vertex 3.36249 -1.09254 -3.53553
      vertex 4.23699 -1.37668 -2.26995
      vertex 3.6042 -2.6186 -2.26995
    endloop
  endfacet
  facet normal 0.802456 -0.127097 -0.583019
    outer loop
      vertex 3.36249 -1.09254 -3.53553
      vertex 3.53553 0 -3.53553
      vertex 4.23699 -1.37668 -2.26995
    endloop
  endfacet
  facet normal 0.802456 -0.127097 -0.583019
    outer loop
      vertex 3.53553 0 -3.53553
      vertex 4.45503 0 -2.26995
      vertex 4.23699 -1.37668 -2.26995
    endloop
  endfacet
  facet normal 0.585255 0.0926952 -0.805534
    outer loop
      vertex 2.26995 0 -4.45503
      vertex 2.15885 0.701454 -4.45503
      vertex 3.53553 0 -3.53553
    endloop
  endfacet
  facet normal 0.585255 0.0926952 -0.805534
    outer loop
      vertex 2.15885 0.701454 -4.45503
      vertex 3.36249 1.09254 -3.53553
      vertex 3.53553 0 -3.53553
    endloop
  endfacet
  facet normal 0.527966 0.269012 -0.805534
    outer loop
      vertex 2.15885 0.701454 -4.45503
      vertex 1.83643 1.33424 -4.45503
      vertex 3.36249 1.09254 -3.53553
    endloop
  endfacet
  facet normal 0.527966 0.269012 -0.805534
    outer loop
      vertex 1.83643 1.33424 -4.45503
      vertex 2.86031 2.07813 -3.53553
      vertex 3.36249 1.09254 -3.53553
    endloop
  endfacet
  facet normal 0.418996 0.418996 -0.805534
    outer loop
      vertex 1.83643 1.33424 -4.45503
      vertex 1.33424 1.83643 -4.45503
      vertex 2.86031 2.07813 -3.53553
    endloop
  endfacet
  facet normal 0.418996 0.418996 -0.805534
    outer loop
      vertex 1.33424 1.83643 -4.45503
      vertex 2.07813 2.86031 -3.53553
      vertex 2.86031 2.07813 -3.53553
    endloop
  endfacet
  facet normal 0.269012 0.527966 -0.805534
    outer loop
      vertex 1.33424 1.83643 -4.45503
      vertex 0.701454 2.15885 -4.45503
      vertex 2.07813 2.86031 -3.53553
    endloop
  endfacet
  facet normal 0.269012 0.527966 -0.805534
    outer loop
      vertex 0.701454 2.15885 -4.45503
      vertex 1.09254 3.36249 -3.53553
      vertex 2.07813 2.86031 -3.53553
    endloop
  endfacet
  facet normal 0.0926952 0.585255 -0.805534
    outer loop
      vertex 0.701454 2.15885 -4.45503
      vertex 1.38995e-16 2.26995 -4.45503
      vertex 1.09254 3.36249 -3.53553
    endloop
  endfacet
  facet normal 0.0926952 0.585255 -0.805534
    outer loop
      vertex 1.38995e-16 2.26995 -4.45503
      vertex 2.16489e-16 3.53553 -3.53553
      vertex 1.09254 3.36249 -3.53553
    endloop
  endfacet
  facet normal -0.0926952 0.585255 -0.805534
    outer loop
      vertex 1.38995e-16 2.26995 -4.45503
      vertex -0.701454 2.15885 -4.45503
      vertex 2.16489e-16 3.53553 -3.53553
    endloop
  endfacet
  facet normal -0.0926952 0.585255 -0.805534
    outer loop
      vertex -0.701454 2.15885 -4.45503
      vertex -1.09254 3.36249 -3.53553
      vertex 2.16489e-16 3.53553 -3.53553
    endloop
  endfacet
  facet normal -0.269012 0.527966 -0.805534
    outer loop
      vertex -0.701454 2.15885 -4.45503
      vertex -1.33424 1.83643 -4.45503
      vertex -1.09254 3.36249 -3.53553
    endloop
  endfacet
  facet normal -0.269012 0.527966 -0.805534
    outer loop
      vertex -1.33424 1.83643 -4.45503
      vertex -2.07813 2.86031 -3.53553
      vertex -1.09254 3.36249 -3.53553
    endloop
  endfacet
  facet normal -0.418996 0.418996 -0.805534
    outer loop
      vertex -1.33424 1.83643 -4.45503
      vertex -1.83643 1.33424 -4.45503
      vertex -2.07813 2.86031 -3.53553
    endloop
  endfacet
  facet normal -0.418996 0.418996 -0.805534
    outer loop
      vertex -1.83643 1.33424 -4.45503
      vertex -2.86031 2.07813 -3.53553
      vertex -2.07813 2.86031 -3.53553
    endloop
  endfacet
  facet normal -0.527966 0.269012 -0.805534
    outer loop
      vertex -1.83643 1.33424 -4.45503
      vertex -2.15885 0.701454 -4.45503
      vertex -2.86031 2.07813 -3.53553
    endloop
  endfacet
  facet normal -0.527966 0.269012 -0.805534
    outer loop
      vertex -2.15885 0.701454 -4.45503
      vertex -3.36249 1.09254 -3.53553
      vertex -2.86031 2.07813 -3.53553
    endloop
  endfacet
  facet normal -0.585255 0.0926952 -0.805534
    outer loop
      vertex -2.15885 0.701454 -4.45503
      vertex -2.26995 2.77989e-16 -4.45503
      vertex -3.36249 1.09254 -3.53553
    endloop
  endfacet
  facet normal -0.585255 0.0926952 -0.805534
    outer loop
      vertex -2.26995 2.77989e-16 -4.45503
      vertex -3.53553 4.32978e-16 -3.53553
      vertex -3.36249 1.09254 -3.53553
    endloop
  endfacet
  facet normal -0.585255 -0.0926952 -0.805534
    outer loop
      vertex -2.26995 2.77989e-16 -4.45503
      vertex -2.15885 -0.701454 -4.45503
      vertex -3.53553 4.32978e-16 -3.53553
    endloop
  endfacet
  facet normal -0.585255 -0.0926952 -0.805534
    outer loop
      vertex -2.15885 -0.701454 -4.45503
      vertex -3.36249 -1.09254 -3.53553
      vertex -3.53553 4.32978e-16 -3.53553
    endloop
  endfacet
  facet normal -0.527966 -0.269012 -0.805534
    outer loop
      vertex -2.15885 -0.701454 -4.45503
      vertex -1.83643 -1.33424 -4.45503
      vertex -3.36249 -1.09254 -3.53553
    endloop
  endfacet
  facet normal -0.527966 -0.269012 -0.805534
    outer loop
      vertex -1.83643 -1.33424 -4.45503
      vertex -2.86031 -2.07813 -3.53553
      vertex -3.36249 -1.09254 -3.53553
    endloop
  endfacet
  facet normal -0.418996 -0.418996 -0.805534
    outer loop
      vertex -1.83643 -1.33424 -4.45503
      vertex -1.33424 -1.83643 -4.45503
      vertex -2.86031 -2.07813 -3.53553
    endloop
  endfacet
  facet normal -0.418996 -0.418996 -0.805534
    outer loop
      vertex -1.33424 -1.83643 -4.45503
      vertex -2.07813 -2.86031 -3.53553
      vertex -2.86031 -2.07813 -3.53553
    endloop
  endfacet
  facet normal -0.269012 -0.527966 -0.805534
    outer loop
      vertex -1.33424 -1.83643 -4.45503
      vertex -0.701454 -2.15885 -4.45503
      vertex -2.07813 -2.86031 -3.53553
    endloop
  endfacet
  facet normal -0.269012 -0.527966 -0.805534
    outer loop
      vertex -0.701454 -2.15885 -4.45503
      vertex -1.09254 -3.36249 -3.53553
      vertex -2.07813 -2.86031 -3.53553
    endloop
  endfacet
  facet normal -0.0926952 -0.585255 -0.805534
    outer loop
      vertex -0.701454 -2.15885 -4.45503
      vertex -4.16984e-16 -2.26995 -4.45503
      vertex -1.09254 -3.36249 -3.53553
    endloop
  endfacet
  facet normal -0.0926952 -0.585255 -0.805534
    outer loop
      vertex -4.16984e-16 -2.26995 -4.45503
      vertex -6.49467e-16 -3.53553 -3.53553
      vertex -1.09254 -3.36249 -3.53553
    endloop
  endfacet
  facet normal 0.0926952 -0.585255 -0.805534
    outer loop
      vertex -4.16984e-16 -2.26995 -4.45503
      vertex 0.701454 -2.15885 -4.45503
      vertex -6.49467e-16 -3.53553 -3.53553
    endloop
  endfacet
  facet normal 0.0926952 -0.585255 -0.805534
    outer loop
      vertex 0.701454 -2.15885 -4.45503
      vertex 1.09254 -3.36249 -3.53553
      vertex -6.49467e-16 -3.53553 -3.53553
    endloop
  endfacet
  facet normal 0.269012 -0.527966 -0.805534
    outer loop
      vertex 0.701454 -2.15885 -4.45503
      vertex 1.33424 -1.83643 -4.45503
      vertex 1.09254 -3.36249 -3.53553
    endloop
  endfacet
  facet normal 0.269012 -0.527966 -0.805534
    outer loop
      vertex 1.33424 -1.83643 -4.45503
      vertex 2.07813 -2.86031 -3.53553
      vertex 1.09254 -3.36249 -3.53553
    endloop
  endfacet
  facet normal 0.418996 -0.418996 -0.805534
    outer loop
      vertex 1.33424 -1.83643 -4.45503
      vertex 1.83643 -1.33424 -4.45503
      vertex 2.07813 -2.86031 -3.53553
    endloop
  endfacet
  facet normal 0.418996 -0.418996 -0.805534
    outer loop
      vertex 1.83643 -1.33424 -4.45503
      vertex 2.86031 -2.07813 -3.53553
      vertex 2.07813 -2.86031 -3.53553
    endloop
  endfacet
  facet normal 0.527966 -0.269012 -0.805534
    outer loop
      vertex 1.83643 -1.33424 -4.45503
      vertex 2.15885 -0.701454 -4.45503
      vertex 2.86031 -2.07813 -3.53553
    endloop
  endfacet
  facet normal 0.527966 -0.269012 -0.805534
    outer loop
      vertex 2.15885 -0.701454 -4.45503
      vertex 3.36249 -1.09254 -3.53553
      vertex 2.86031 -2.07813 -3.53553
    endloop
  endfacet
  facet normal 0.585255 -0.0926952 -0.805534
    outer loop
      vertex 2.15885 -0.701454 -4.45503
      vertex 2.26995 0 -4.45503
      vertex 3.36249 -1.09254 -3.53553
    endloop
  endfacet
  facet normal 0.585255 -0.0926952 -0.805534
    outer loop
      vertex 2.26995 0 -4.45503
      vertex 3.53553 0 -3.53553
      vertex 3.36249 -1.09254 -3.53553
    endloop
  endfacet
  facet normal 0.308648 0.048885 -0.949919
    outer loop
      vertex 0.782172 0 -4.93844
      vertex 0.74389 0.241705 -4.93844
      vertex 2.26995 0 -4.45503
    endloop
  endfacet
  facet normal 0.308648 0.048885 -0.949919
    outer loop
      vertex 0.74389 0.241705 -4.93844
      vertex 2.15885 0.701454 -4.45503
      vertex 2.26995 0 -4.45503
    endloop
  endfacet
  facet normal 0.278435 0.14187 -0.949919
    outer loop
      vertex 0.74389 0.241705 -4.93844
      vertex 0.632791 0.459749 -4.93844
      vertex 2.15885 0.701454 -4.45503
    endloop
  endfacet
  facet normal 0.278435 0.14187 -0.949919
    outer loop
      vertex 0.632791 0.459749 -4.93844
      vertex 1.83643 1.33424 -4.45503
      vertex 2.15885 0.701454 -4.45503
    endloop
  endfacet
  facet normal 0.220967 0.220967 -0.949919
    outer loop
      vertex 0.632791 0.459749 -4.93844
      vertex 0.459749 0.632791 -4.93844
      vertex 1.83643 1.33424 -4.45503
    endloop
  endfacet
  facet normal 0.220967 0.220967 -0.949919
    outer loop
      vertex 0.459749 0.632791 -4.93844
      vertex 1.33424 1.83643 -4.45503
      vertex 1.83643 1.33424 -4.45503
    endloop
  endfacet
  facet normal 0.14187 0.278435 -0.949919
    outer loop
      vertex 0.459749 0.632791 -4.93844
      vertex 0.241705 0.74389 -4.93844
      vertex 1.33424 1.83643 -4.45503
    endloop
  endfacet
  facet normal 0.14187 0.278435 -0.949919
    outer loop
      vertex 0.241705 0.74389 -4.93844
      vertex 0.701454 2.15885 -4.45503
      vertex 1.33424 1.83643 -4.45503
    endloop
  endfacet
  facet normal 0.048885 0.308648 -0.949919
    outer loop
      vertex 0.241705 0.74389 -4.93844
      vertex 4.78942e-17 0.782172 -4.93844
      vertex 0.701454 2.15885 -4.45503
    endloop
  endfacet
  facet normal 0.048885 0.308648 -0.949919
    outer loop
      vertex 4.78942e-17 0.782172 -4.93844
      vertex 1.38995e-16 2.26995 -4.45503
      vertex 0.701454 2.15885 -4.45503
    endloop
  endfacet
  facet normal -0.048885 0.308648 -0.949919
    outer loop
      vertex 4.78942e-17 0.782172 -4.93844
      vertex -0.241705 0.74389 -4.93844
      vertex 1.38995e-16 2.26995 -4.45503
    endloop
  endfacet
  facet normal -0.048885 0.308648 -0.949919
    outer loop
      vertex -0.241705 0.74389 -4.93844
      vertex -0.701454 2.15885 -4.45503
      vertex 1.38995e-16 2.26995 -4.45503
    endloop
  endfacet
  facet normal -0.14187 0.278435 -0.949919
    outer loop
      vertex -0.241705 0.74389 -4.93844
      vertex -0.459749 0.632791 -4.93844
      vertex -0.701454 2.15885 -4.45503
    endloop
  endfacet
  facet normal -0.14187 0.278435 -0.949919
    outer loop
      vertex -0.459749 0.632791 -4.93844
      vertex -1.33424 1.83643 -4.45503
      vertex -0.701454 2.15885 -4.45503
    endloop
  endfacet
  facet normal -0.220967 0.220967 -0.949919
    outer loop
      vertex -0.459749 0.632791 -4.93844
      vertex -0.632791 0.459749 -4.93844
      vertex -1.33424 1.83643 -4.45503
    endloop
  endfacet
  facet normal -0.220967 0.220967 -0.949919
    outer loop
      vertex -0.632791 0.459749 -4.93844
      vertex -1.83643 1.33424 -4.45503
      vertex -1.33424 1.83643 -4.45503
    endloop
  endfacet
  facet normal -0.278435 0.14187 -0.949919
    outer loop
      vertex -0.632791 0.459749 -4.93844
      vertex -0.74389 0.241705 -4.93844
      vertex -1.83643 1.33424 -4.45503
    endloop
  endfacet
  facet normal -0.278435 0.14187 -0.949919
    outer loop
      vertex -0.74389 0.241705 -4.93844
      vertex -2.15885 0.701454 -4.45503
      vertex -1.83643 1.33424 -4.45503
    endloop
  endfacet
  facet normal -0.308648 0.048885 -0.949919
    outer loop
      vertex -0.74389 0.241705 -4.93844
      vertex -0.782172 9.57885e-17 -4.93844
      vertex -2.15885 0.701454 -4.45503
    endloop
  endfacet
  facet normal -0.308648 0.048885 -0.949919
    outer loop
      vertex -0.782172 9.57885e-17 -4.93844
      vertex -2.26995 2.77989e-16 -4.45503
      vertex -2.15885 0.701454 -4.45503
    endloop
  endfacet
  facet normal -0.308648 -0.048885 -0.949919
    outer loop
      vertex -0.782172 9.57885e-17 -4.93844
      vertex -0.74389 -0.241705 -4.93844
      vertex -2.26995 2.77989e-16 -4.45503
    endloop
  endfacet
  facet normal -0.308648 -0.048885 -0.949919
    outer loop
      vertex -0.74389 -0.241705 -4.93844
      vertex -2.15885 -0.701454 -4.45503
      vertex -2.26995 2.77989e-16 -4.45503
    endloop
  endfacet
  facet normal -0.278435 -0.14187 -0.949919
    outer loop
      vertex -0.74389 -0.241705 -4.93844
      vertex -0.632791 -0.459749 -4.93844
      vertex -2.15885 -0.701454 -4.45503
    endloop
  endfacet
  facet normal -0.278435 -0.14187 -0.949919
    outer loop
      vertex -0.632791 -0.459749 -4.93844
      vertex -1.83643 -1.33424 -4.45503
      vertex -2.15885 -0.701454 -4.45503
    endloop
  endfacet
  facet normal -0.220967 -0.220967 -0.949919
    outer loop
      vertex -0.632791 -0.459749 -4.93844
      vertex -0.459749 -0.632791 -4.93844
      vertex -1.83643 -1.33424 -4.45503
    endloop
  endfacet
  facet normal -0.220967 -0.220967 -0.949919
    outer loop
      vertex -0.459749 -0.632791 -4.93844
      vertex -1.33424 -1.83643 -4.45503
      vertex -1.83643 -1.33424 -4.45503
    endloop
  endfacet
  facet normal -0.14187 -0.278435 -0.949919
    outer loop
      vertex -0.459749 -0.632791 -4.93844
      vertex -0.241705 -0.74389 -4.93844
      vertex -1.33424 -1.83643 -4.45503
    endloop
  endfacet
  facet normal -0.14187 -0.278435 -0.949919
    outer loop
      vertex -0.241705 -0.74389 -4.93844
      vertex -0.701454 -2.15885 -4.45503
      vertex -1.33424 -1.83643 -4.45503
    endloop
  endfacet
  facet normal -0.048885 -0.308648 -0.949919
    outer loop
      vertex -0.241705 -0.74389 -4.93844
      vertex -1.43683e-16 -0.782172 -4.93844
      vertex -0.701454 -2.15885 -4.45503
    endloop
  endfacet
  facet normal -0.048885 -0.308648 -0.949919
    outer loop
      vertex -1.43683e-16 -0.782172 -4.93844
      vertex -4.16984e-16 -2.26995 -4.45503
      vertex -0.701454 -2.15885 -4.45503
    endloop
  endfacet
  facet normal 0.048885 -0.308648 -0.949919
    outer loop
      vertex -1.43683e-16 -0.782172 -4.93844
      vertex 0.241705 -0.74389 -4.93844
      vertex -4.16984e-16 -2.26995 -4.45503
    endloop
  endfacet
  facet normal 0.048885 -0.308648 -0.949919
    outer loop
      vertex 0.241705 -0.74389 -4.93844
      vertex 0.701454 -2.15885 -4.45503
      vertex -4.16984e-16 -2.26995 -4.45503
    endloop
  endfacet
  facet normal 0.14187 -0.278435 -0.949919
    outer loop
      vertex 0.241705 -0.74389 -4.93844
      vertex 0.459749 -0.632791 -4.93844
      vertex 0.701454 -2.15885 -4.45503
    endloop
  endfacet
  facet normal 0.14187 -0.278435 -0.949919
    outer loop
      vertex 0.459749 -0.632791 -4.93844
      vertex 1.33424 -1.83643 -4.45503
      vertex 0.701454 -2.15885 -4.45503
    endloop
  endfacet
  facet normal 0.220967 -0.220967 -0.949919
    outer loop
      vertex 0.459749 -0.632791 -4.93844
      vertex 0.632791 -0.459749 -4.93844
      vertex 1.33424 -1.83643 -4.45503
    endloop
  endfacet
  facet normal 0.220967 -0.220967 -0.949919
    outer loop
      vertex 0.632791 -0.459749 -4.93844
      vertex 1.83643 -1.33424 -4.45503
      vertex 1.33424 -1.83643 -4.45503
    endloop
  endfacet
  facet normal 0.278435 -0.14187 -0.949919
    outer loop
      vertex 0.632791 -0.459749 -4.93844
      vertex 0.74389 -0.241705 -4.93844
      vertex 1.83643 -1.33424 -4.45503
    endloop
  endfacet
  facet normal 0.278435 -0.14187 -0.949919
    outer loop
      vertex 0.74389 -0.241705 -4.93844
      vertex 2.15885 -0.701454 -4.45503
      vertex 1.83643 -1.33424 -4.45503
    endloop
  endfacet
  facet normal 0.308648 -0.048885 -0.949919
    outer loop
      vertex 0.74389 -0.241705 -4.93844
      vertex 0.782172 0 -4.93844
      vertex 2.15885 -0.701454 -4.45503
    endloop
  endfacet
  facet normal 0.308648 -0.048885 -0.949919
    outer loop
      vertex 0.782172 0 -4.93844
      vertex 2.26995 0 -4.45503
      vertex 2.15885 -0.701454 -4.45503
    endloop
  endfacet
  facet normal 0 0 1
    outer loop
      vertex 0.74389 0.241705 4.93844
      vertex 0.74389 -0.241705 4.93844
      vertex 0.782172 0 4.93844
    endloop
  endfacet
  facet normal 0 0 1
    outer loop
      vertex 0.632791 0.459749 4.93844
      vertex 0.74389 -0.241705 4.93844
      vertex 0.74389 0.241705 4.93844
    endloop
  endfacet
  facet normal 0 0 1
    outer loop
      vertex 0.632791 0.459749 4.93844
      vertex 0.632791 -0.459749 4.93844
      vertex 0.74389 -0.241705 4.93844
    endloop
  endfacet
  facet normal 0 0 1
    outer loop
      vertex 0.459749 0.632791 4.93844
      vertex 0.632791 -0.459749 4.93844
      vertex 0.632791 0.459749 4.93844
    endloop
  endfacet
  facet normal 0 0 1
    outer loop
      vertex 0.459749 0.632791 4.93844
      vertex 0.459749 -0.632791 4.93844
      vertex 0.632791 -0.459749 4.93844
    endloop
  endfacet
  facet normal 0 0 1
    outer loop
      vertex 0.241705 0.74389 4.93844
      vertex 0.459749 -0.632791 4.93844
      vertex 0.459749 0.632791 4.93844
    endloop
  endfacet
  facet normal 0 0 1
    outer loop
      vertex 0.241705 0.74389 4.93844
      vertex 0.241705 -0.74389 4.93844
      vertex 0.459749 -0.632791 4.93844
    endloop
  endfacet
  facet normal 0 0 1
    outer loop
      vertex 4.78942e-17 0.782172 4.93844
      vertex 0.241705 -0.74389 4.93844
      vertex 0.241705 0.74389 4.93844
    endloop
  endfacet
  facet normal 0 0 1
    outer loop
      vertex 4.78942e-17 0.782172 4.93844
      vertex -1.43683e-16 -0.782172 4.93844
      vertex 0.241705 -0.74389 4.93844
    endloop
  endfacet
  facet normal -0 0 1
    outer loop
      vertex -0.241705 0.74389 4.93844
      vertex -1.43683e-16 -0.782172 4.93844
      vertex 4.78942e-17 0.782172 4.93844
    endloop
  endfacet
  facet normal 0 0 1
    outer loop
      vertex -0.241705 0.74389 4.93844
      vertex -0.241705 -0.74389 4.93844
      vertex -1.43683e-16 -0.782172 4.93844
    endloop
  endfacet
  facet normal -0 0 1
    outer loop
      vertex -0.459749 0.632791 4.93844
      vertex -0.241705 -0.74389 4.93844
      vertex -0.241705 0.74389 4.93844
    endloop
  endfacet
  facet normal 0 0 1
    outer loop
      vertex -0.459749 0.632791 4.93844
      vertex -0.459749 -0.632791 4.93844
      vertex -0.241705 -0.74389 4.93844
    endloop
  endfacet
  facet normal -0 0 1
    outer loop
      vertex -0.632791 0.459749 4.93844
      vertex -0.459749 -0.632791 4.93844
      vertex -0.459749 0.632791 4.93844
    endloop
  endfacet
  facet normal 0 0 1
    outer loop
      vertex -0.632791 0.459749 4.93844
      vertex -0.632791 -0.459749 4.93844
      vertex -0.459749 -0.632791 4.93844
    endloop
  endfacet
  facet normal -0 0 1
    outer loop
      vertex -0.74389 0.241705 4.93844
      vertex -0.632791 -0.459749 4.93844
      vertex -0.632791 0.459749 4.93844
    endloop
  endfacet
  facet normal 0 0 1
    outer loop
      vertex -0.74389 0.241705 4.93844
      vertex -0.74389 -0.241705 4.93844
      vertex -0.632791 -0.459749 4.93844
    endloop
  endfacet
  facet normal 0 -0 1
    outer loop
      vertex -0.74389 -0.241705 4.93844
      vertex -0.74389 0.241705 4.93844
      vertex -0.782172 9.57885e-17 4.93844
    endloop
  endfacet
  facet normal 0 0 -1
    outer loop
      vertex 0.74389 -0.241705 -4.93844
      vertex 0.74389 0.241705 -4.93844
      vertex 0.782172 0 -4.93844
    endloop
  endfacet
  facet normal 0 0 -1
    outer loop
      vertex 0.632791 -0.459749 -4.93844
      vertex 0.74389 0.241705 -4.93844
      vertex 0.74389 -0.241705 -4.93844
    endloop
  endfacet
  facet normal 0 0 -1
    outer loop
      vertex 0.632791 -0.459749 -4.93844
      vertex 0.632791 0.459749 -4.93844
      vertex 0.74389 0.241705 -4.93844
    endloop
  endfacet
  facet normal 0 0 -1
    outer loop
      vertex 0.459749 -0.632791 -4.93844
      vertex 0.632791 0.459749 -4.93844
      vertex 0.632791 -0.459749 -4.93844
    endloop
  endfacet
  facet normal 0 0 -1
    outer loop
      vertex 0.459749 -0.632791 -4.93844
      vertex 0.459749 0.632791 -4.93844
      vertex 0.632791 0.459749 -4.93844
    endloop
  endfacet
  facet normal 0 0 -1
    outer loop
      vertex 0.241705 -0.74389 -4.93844
      vertex 0.459749 0.632791 -4.93844
      vertex 0.459749 -0.632791 -4.93844
    endloop
  endfacet
  facet normal 0 0 -1
    outer loop
      vertex 0.241705 -0.74389 -4.93844
      vertex 0.241705 0.74389 -4.93844
      vertex 0.459749 0.632791 -4.93844
    endloop
  endfacet
  facet normal 0 0 -1
    outer loop
      vertex 0.241705 -0.74389 -4.93844
      vertex 4.78942e-17 0.782172 -4.93844
      vertex 0.241705 0.74389 -4.93844
    endloop
  endfacet
  facet normal 0 0 -1
    outer loop
      vertex -1.43683e-16 -0.782172 -4.93844
      vertex 4.78942e-17 0.782172 -4.93844
      vertex 0.241705 -0.74389 -4.93844
    endloop
  endfacet
  facet normal 0 0 -1
    outer loop
      vertex -0.241705 -0.74389 -4.93844
      vertex 4.78942e-17 0.782172 -4.93844
      vertex -1.43683e-16 -0.782172 -4.93844
    endloop
  endfacet
  facet normal 0 0 -1
    outer loop
      vertex -0.241705 -0.74389 -4.93844
      vertex -0.241705 0.74389 -4.93844
      vertex 4.78942e-17 0.782172 -4.93844
    endloop
  endfacet
  facet normal 0 0 -1
    outer loop
      vertex -0.459749 -0.632791 -4.93844
      vertex -0.241705 0.74389 -4.93844
      vertex -0.241705 -0.74389 -4.93844
    endloop
  endfacet
  facet normal 0 0 -1
    outer loop
      vertex -0.459749 -0.632791 -4.93844
      vertex -0.459749 0.632791 -4.93844
      vertex -0.241705 0.74389 -4.93844
    endloop
  endfacet
  facet normal 0 0 -1
    outer loop
      vertex -0.632791 -0.459749 -4.93844
      vertex -0.459749 0.632791 -4.93844
      vertex -0.459749 -0.632791 -4.93844
    endloop
  endfacet
  facet normal 0 0 -1
    outer loop
      vertex -0.632791 -0.459749 -4.93844
      vertex -0.632791 0.459749 -4.93844
      vertex -0.459749 0.632791 -4.93844
    endloop
  endfacet
  facet normal 0 0 -1
    outer loop
      vertex -0.74389 -0.241705 -4.93844
      vertex -0.632791 0.459749 -4.93844
      vertex -0.632791 -0.459749 -4.93844
    endloop
  endfacet
  facet normal 0 0 -1
    outer loop
      vertex -0.74389 -0.241705 -4.93844
      vertex -0.74389 0.241705 -4.93844
      vertex -0.632791 0.459749 -4.93844
    endloop
  endfacet
  facet normal 0 -0 -1
    outer loop
      vertex -0.74389 0.241705 -4.93844
      vertex -0.74389 -0.241705 -4.93844
      vertex -0.782172 9.57885e-17 -4.93844
    endloop
  endfacet
endsolid OpenSCAD_Model
