solid OpenSCAD_Model
  facet normal 0.254287 0.0402751 0.96629
    outer loop
      vertex 15.5104 7.95882 0
      vertex 12.008 6.08 1
      vertex 15.808 6.08 0
    endloop
  endfacet
  facet normal 0.229395 0.116883 0.96629
    outer loop
      vertex 14.6468 9.65373 0
      vertex 11.5726 7.42015 1
      vertex 15.5104 7.95882 0
    endloop
  endfacet
  facet normal 0 0 -1
    outer loop
      vertex 14.288 6.08 0
      vertex 15.808 6.08 0
      vertex 15.5104 4.20118 0
    endloop
  endfacet
  facet normal 0 0 -1
    outer loop
      vertex 13.8938 4.22528 0
      vertex 15.5104 4.20118 0
      vertex 14.6468 2.50627 0
    endloop
  endfacet
  facet normal 0 0 -1
    outer loop
      vertex 15.808 6.08 0
      vertex 14.288 6.08 0
      vertex 15.5104 7.95882 0
    endloop
  endfacet
  facet normal 0 0 -1
    outer loop
      vertex 13.8938 7.93472 0
      vertex 15.5104 7.95882 0
      vertex 14.288 6.08 0
    endloop
  endfacet
  facet normal 0 0 -1
    outer loop
      vertex 15.5104 4.20118 0
      vertex 13.8938 4.22528 0
      vertex 14.288 6.08 0
    endloop
  endfacet
  facet normal 0 0 -1
    outer loop
      vertex 12.7792 2.69126 0
      vertex 14.6468 2.50627 0
      vertex 13.3017 1.16118 0
    endloop
  endfacet
  facet normal 0 0 -1
    outer loop
      vertex 14.6468 2.50627 0
      vertex 12.7792 2.69126 0
      vertex 13.8938 4.22528 0
    endloop
  endfacet
  facet normal 0 0 -1
    outer loop
      vertex 11.1371 1.74318 0
      vertex 13.3017 1.16118 0
      vertex 11.6068 0.297577 0
    endloop
  endfacet
  facet normal 0 0 -1
    outer loop
      vertex 13.3017 1.16118 0
      vertex 11.1371 1.74318 0
      vertex 12.7792 2.69126 0
    endloop
  endfacet
  facet normal 0 0 -1
    outer loop
      vertex 9.728 7.62939e-08 0
      vertex 11.1371 1.74318 0
      vertex 11.6068 0.297577 0
    endloop
  endfacet
  facet normal 0 0 -1
    outer loop
      vertex 9.728 7.62939e-08 0
      vertex 9.25135 1.54498 0
      vertex 11.1371 1.74318 0
    endloop
  endfacet
  facet normal 0 0 -1
    outer loop
      vertex 7.84918 0.297577 0
      vertex 9.25135 1.54498 0
      vertex 9.728 7.62939e-08 0
    endloop
  endfacet
  facet normal 0 0 -1
    outer loop
      vertex 7.84918 0.297577 0
      vertex 7.448 2.13092 0
      vertex 9.25135 1.54498 0
    endloop
  endfacet
  facet normal 0 0 -1
    outer loop
      vertex 6.15427 1.16118 0
      vertex 7.448 2.13092 0
      vertex 7.84918 0.297577 0
    endloop
  endfacet
  facet normal 0 0 -1
    outer loop
      vertex 6.15427 1.16118 0
      vertex 6.03888 3.3997 0
      vertex 7.448 2.13092 0
    endloop
  endfacet
  facet normal 0 0 -1
    outer loop
      vertex 4.80918 2.50627 0
      vertex 6.03888 3.3997 0
      vertex 6.15427 1.16118 0
    endloop
  endfacet
  facet normal 0 0 -1
    outer loop
      vertex 6.03888 3.3997 0
      vertex 3.94558 4.20118 0
      vertex 5.26765 5.13192 0
    endloop
  endfacet
  facet normal 0 0 -1
    outer loop
      vertex 3.94558 4.20118 0
      vertex 6.03888 3.3997 0
      vertex 4.80918 2.50627 0
    endloop
  endfacet
  facet normal -0 0 -1
    outer loop
      vertex 15.5104 7.95882 0
      vertex 13.8938 7.93472 0
      vertex 14.6468 9.65373 0
    endloop
  endfacet
  facet normal 0 0 -1
    outer loop
      vertex 12.7792 9.46874 0
      vertex 14.6468 9.65373 0
      vertex 13.8938 7.93472 0
    endloop
  endfacet
  facet normal -0 0 -1
    outer loop
      vertex 14.6468 9.65373 0
      vertex 12.7792 9.46874 0
      vertex 13.3017 10.9988 0
    endloop
  endfacet
  facet normal 0 0 -1
    outer loop
      vertex 11.1371 10.4168 0
      vertex 13.3017 10.9988 0
      vertex 12.7792 9.46874 0
    endloop
  endfacet
  facet normal -0 0 -1
    outer loop
      vertex 13.3017 10.9988 0
      vertex 11.1371 10.4168 0
      vertex 11.6068 11.8624 0
    endloop
  endfacet
  facet normal 0 0 -1
    outer loop
      vertex 11.1371 10.4168 0
      vertex 9.728 12.16 0
      vertex 11.6068 11.8624 0
    endloop
  endfacet
  facet normal 0 0 -1
    outer loop
      vertex 9.25135 10.615 0
      vertex 9.728 12.16 0
      vertex 11.1371 10.4168 0
    endloop
  endfacet
  facet normal 0 0 -1
    outer loop
      vertex 9.25135 10.615 0
      vertex 7.84918 11.8624 0
      vertex 9.728 12.16 0
    endloop
  endfacet
  facet normal 0 0 -1
    outer loop
      vertex 7.448 10.0291 0
      vertex 7.84918 11.8624 0
      vertex 9.25135 10.615 0
    endloop
  endfacet
  facet normal 0 0 -1
    outer loop
      vertex 7.448 10.0291 0
      vertex 6.15427 10.9988 0
      vertex 7.84918 11.8624 0
    endloop
  endfacet
  facet normal 0 0 -1
    outer loop
      vertex 6.03888 8.7603 0
      vertex 6.15427 10.9988 0
      vertex 7.448 10.0291 0
    endloop
  endfacet
  facet normal 0 0 -1
    outer loop
      vertex 3.94558 7.95882 0
      vertex 6.03888 8.7603 0
      vertex 5.26765 7.02808 0
    endloop
  endfacet
  facet normal 0 0 -1
    outer loop
      vertex 6.03888 8.7603 0
      vertex 4.80918 9.65373 0
      vertex 6.15427 10.9988 0
    endloop
  endfacet
  facet normal 0 0 -1
    outer loop
      vertex 3.648 6.08 0
      vertex 5.26765 5.13192 0
      vertex 3.94558 4.20118 0
    endloop
  endfacet
  facet normal 0 0 -1
    outer loop
      vertex 5.26765 5.13192 0
      vertex 3.648 6.08 0
      vertex 5.26765 7.02808 0
    endloop
  endfacet
  facet normal -0 0 -1
    outer loop
      vertex 6.03888 8.7603 0
      vertex 3.94558 7.95882 0
      vertex 4.80918 9.65373 0
    endloop
  endfacet
  facet normal -0 0 -1
    outer loop
      vertex 5.26765 7.02808 0
      vertex 3.648 6.08 0
      vertex 3.94558 7.95882 0
    endloop
  endfacet
  facet normal -0.0402752 0.254287 0.96629
    outer loop
      vertex 9.728 12.16 0
      vertex 7.84918 11.8624 0
      vertex 9.728 8.36 1
    endloop
  endfacet
  facet normal 0.116883 0.229395 0.96629
    outer loop
      vertex 11.6068 11.8624 0
      vertex 11.0681 7.92456 1
      vertex 13.3017 10.9988 0
    endloop
  endfacet
  facet normal 0.0402752 -0.254287 0.96629
    outer loop
      vertex 10.4326 3.91159 1
      vertex 9.728 3.8 1
      vertex 11.6068 0.297577 0
    endloop
  endfacet
  facet normal 0.182049 -0.182049 0.96629
    outer loop
      vertex 11.5726 4.73985 1
      vertex 13.3017 1.16118 0
      vertex 14.6468 2.50627 0
    endloop
  endfacet
  facet normal 0.182049 -0.182049 0.96629
    outer loop
      vertex 13.3017 1.16118 0
      vertex 11.5726 4.73985 1
      vertex 11.0681 4.23544 1
    endloop
  endfacet
  facet normal -0.182049 0.182049 0.96629
    outer loop
      vertex 6.15427 10.9988 0
      vertex 7.88344 7.42015 1
      vertex 8.38785 7.92456 1
    endloop
  endfacet
  facet normal -0.182049 0.182049 0.96629
    outer loop
      vertex 7.88344 7.42015 1
      vertex 6.15427 10.9988 0
      vertex 4.80918 9.65373 0
    endloop
  endfacet
  facet normal -0.116883 0.229395 0.96629
    outer loop
      vertex 7.84918 11.8624 0
      vertex 6.15427 10.9988 0
      vertex 8.38785 7.92456 1
    endloop
  endfacet
  facet normal -0.254287 0.0402751 0.96629
    outer loop
      vertex 3.94558 7.95882 0
      vertex 3.648 6.08 0
      vertex 7.448 6.08 1
    endloop
  endfacet
  facet normal 0.0402751 -0.254287 0.96629
    outer loop
      vertex 9.728 3.8 1
      vertex 9.728 7.62939e-08 0
      vertex 11.6068 0.297577 0
    endloop
  endfacet
  facet normal -0.229395 -0.116883 0.96629
    outer loop
      vertex 7.88344 4.73985 1
      vertex 3.94558 4.20118 0
      vertex 4.80918 2.50627 0
    endloop
  endfacet
  facet normal 0.116883 0.229395 0.96629
    outer loop
      vertex 11.6068 11.8624 0
      vertex 10.4326 8.24841 1
      vertex 11.0681 7.92456 1
    endloop
  endfacet
  facet normal 0.0402752 0.254287 0.96629
    outer loop
      vertex 11.6068 11.8624 0
      vertex 9.728 8.36 1
      vertex 10.4326 8.24841 1
    endloop
  endfacet
  facet normal 0.0402751 0.254287 0.96629
    outer loop
      vertex 9.728 12.16 0
      vertex 9.728 8.36 1
      vertex 11.6068 11.8624 0
    endloop
  endfacet
  facet normal 0.229395 0.116883 0.96629
    outer loop
      vertex 15.5104 7.95882 0
      vertex 11.5726 7.42015 1
      vertex 11.8964 6.78456 1
    endloop
  endfacet
  facet normal 0.116883 -0.229395 0.96629
    outer loop
      vertex 11.0681 4.23544 1
      vertex 10.4326 3.91159 1
      vertex 11.6068 0.297577 0
    endloop
  endfacet
  facet normal 0.116883 -0.229395 0.96629
    outer loop
      vertex 13.3017 1.16118 0
      vertex 11.0681 4.23544 1
      vertex 11.6068 0.297577 0
    endloop
  endfacet
  facet normal 0.254287 -0.0402751 0.96629
    outer loop
      vertex 15.808 6.08 0
      vertex 12.008 6.08 1
      vertex 15.5104 4.20118 0
    endloop
  endfacet
  facet normal -0.229395 -0.116883 0.96629
    outer loop
      vertex 7.55959 5.37544 1
      vertex 3.94558 4.20118 0
      vertex 7.88344 4.73985 1
    endloop
  endfacet
  facet normal 0 0 1
    outer loop
      vertex 11.248 6.08 1
      vertex 12.008 6.08 1
      vertex 11.8964 6.78456 1
    endloop
  endfacet
  facet normal 0 0 1
    outer loop
      vertex 11.1166 6.69824 1
      vertex 11.8964 6.78456 1
      vertex 11.5726 7.42015 1
    endloop
  endfacet
  facet normal 0 0 1
    outer loop
      vertex 12.008 6.08 1
      vertex 11.248 6.08 1
      vertex 11.8964 5.37544 1
    endloop
  endfacet
  facet normal -0 0 1
    outer loop
      vertex 11.1166 5.46176 1
      vertex 11.8964 5.37544 1
      vertex 11.248 6.08 1
    endloop
  endfacet
  facet normal 0 0 1
    outer loop
      vertex 11.8964 6.78456 1
      vertex 11.1166 6.69824 1
      vertex 11.248 6.08 1
    endloop
  endfacet
  facet normal 0 0 1
    outer loop
      vertex 10.7451 7.20958 1
      vertex 11.5726 7.42015 1
      vertex 11.0681 7.92456 1
    endloop
  endfacet
  facet normal 0 0 1
    outer loop
      vertex 11.5726 7.42015 1
      vertex 10.7451 7.20958 1
      vertex 11.1166 6.69824 1
    endloop
  endfacet
  facet normal 0 0 1
    outer loop
      vertex 10.1977 7.52561 1
      vertex 11.0681 7.92456 1
      vertex 10.4326 8.24841 1
    endloop
  endfacet
  facet normal 0 0 1
    outer loop
      vertex 11.0681 7.92456 1
      vertex 10.1977 7.52561 1
      vertex 10.7451 7.20958 1
    endloop
  endfacet
  facet normal 0 0 1
    outer loop
      vertex 9.728 8.36 1
      vertex 10.1977 7.52561 1
      vertex 10.4326 8.24841 1
    endloop
  endfacet
  facet normal 0 0 1
    outer loop
      vertex 9.728 8.36 1
      vertex 9.56912 7.59167 1
      vertex 10.1977 7.52561 1
    endloop
  endfacet
  facet normal -0 0 1
    outer loop
      vertex 9.02344 8.24841 1
      vertex 9.56912 7.59167 1
      vertex 9.728 8.36 1
    endloop
  endfacet
  facet normal 0 0 1
    outer loop
      vertex 9.02344 8.24841 1
      vertex 8.968 7.39636 1
      vertex 9.56912 7.59167 1
    endloop
  endfacet
  facet normal -0 0 1
    outer loop
      vertex 8.38785 7.92456 1
      vertex 8.968 7.39636 1
      vertex 9.02344 8.24841 1
    endloop
  endfacet
  facet normal 0 0 1
    outer loop
      vertex 8.968 7.39636 1
      vertex 8.38785 7.92456 1
      vertex 8.49829 6.97343 1
    endloop
  endfacet
  facet normal -0 0 1
    outer loop
      vertex 7.88344 7.42015 1
      vertex 8.49829 6.97343 1
      vertex 8.38785 7.92456 1
    endloop
  endfacet
  facet normal 0 0 1
    outer loop
      vertex 8.49829 6.97343 1
      vertex 7.55959 6.78456 1
      vertex 8.24122 6.39603 1
    endloop
  endfacet
  facet normal 0 0 1
    outer loop
      vertex 7.55959 6.78456 1
      vertex 8.49829 6.97343 1
      vertex 7.88344 7.42015 1
    endloop
  endfacet
  facet normal 0 0 1
    outer loop
      vertex 11.8964 5.37544 1
      vertex 11.1166 5.46176 1
      vertex 11.5726 4.73985 1
    endloop
  endfacet
  facet normal -0 0 1
    outer loop
      vertex 10.7451 4.95042 1
      vertex 11.5726 4.73985 1
      vertex 11.1166 5.46176 1
    endloop
  endfacet
  facet normal 0 0 1
    outer loop
      vertex 11.5726 4.73985 1
      vertex 10.7451 4.95042 1
      vertex 11.0681 4.23544 1
    endloop
  endfacet
  facet normal -0 0 1
    outer loop
      vertex 10.1977 4.63439 1
      vertex 11.0681 4.23544 1
      vertex 10.7451 4.95042 1
    endloop
  endfacet
  facet normal 0 0 1
    outer loop
      vertex 11.0681 4.23544 1
      vertex 10.1977 4.63439 1
      vertex 10.4326 3.91159 1
    endloop
  endfacet
  facet normal 0 0 1
    outer loop
      vertex 10.1977 4.63439 1
      vertex 9.728 3.8 1
      vertex 10.4326 3.91159 1
    endloop
  endfacet
  facet normal -0 0 1
    outer loop
      vertex 9.56912 4.56833 1
      vertex 9.728 3.8 1
      vertex 10.1977 4.63439 1
    endloop
  endfacet
  facet normal 0 0 1
    outer loop
      vertex 9.56912 4.56833 1
      vertex 9.02344 3.91159 1
      vertex 9.728 3.8 1
    endloop
  endfacet
  facet normal 0 0 1
    outer loop
      vertex 8.968 4.76364 1
      vertex 9.02344 3.91159 1
      vertex 9.56912 4.56833 1
    endloop
  endfacet
  facet normal 0 0 1
    outer loop
      vertex 8.38785 4.23544 1
      vertex 8.968 4.76364 1
      vertex 8.49829 5.18657 1
    endloop
  endfacet
  facet normal 0 0 1
    outer loop
      vertex 8.968 4.76364 1
      vertex 8.38785 4.23544 1
      vertex 9.02344 3.91159 1
    endloop
  endfacet
  facet normal -0 0 1
    outer loop
      vertex 7.55959 5.37544 1
      vertex 8.49829 5.18657 1
      vertex 8.24122 5.76397 1
    endloop
  endfacet
  facet normal 0 0 1
    outer loop
      vertex 7.448 6.08 1
      vertex 8.24122 6.39603 1
      vertex 7.55959 6.78456 1
    endloop
  endfacet
  facet normal 0 0 1
    outer loop
      vertex 8.49829 5.18657 1
      vertex 7.88344 4.73985 1
      vertex 8.38785 4.23544 1
    endloop
  endfacet
  facet normal 0 0 1
    outer loop
      vertex 8.24122 6.39603 1
      vertex 7.448 6.08 1
      vertex 8.24122 5.76397 1
    endloop
  endfacet
  facet normal 0 0 1
    outer loop
      vertex 8.49829 5.18657 1
      vertex 7.55959 5.37544 1
      vertex 7.88344 4.73985 1
    endloop
  endfacet
  facet normal 0 0 1
    outer loop
      vertex 8.24122 5.76397 1
      vertex 7.448 6.08 1
      vertex 7.55959 5.37544 1
    endloop
  endfacet
  facet normal -0.182049 -0.182049 0.96629
    outer loop
      vertex 7.88344 4.73985 1
      vertex 6.15427 1.16118 0
      vertex 8.38785 4.23544 1
    endloop
  endfacet
  facet normal -0.182049 -0.182049 0.96629
    outer loop
      vertex 6.15427 1.16118 0
      vertex 7.88344 4.73985 1
      vertex 4.80918 2.50627 0
    endloop
  endfacet
  facet normal -0.0402752 0.254287 0.96629
    outer loop
      vertex 9.728 8.36 1
      vertex 7.84918 11.8624 0
      vertex 9.02344 8.24841 1
    endloop
  endfacet
  facet normal -0.116883 0.229395 0.96629
    outer loop
      vertex 9.02344 8.24841 1
      vertex 7.84918 11.8624 0
      vertex 8.38785 7.92456 1
    endloop
  endfacet
  facet normal 0.182049 0.182049 0.96629
    outer loop
      vertex 13.3017 10.9988 0
      vertex 11.5726 7.42015 1
      vertex 14.6468 9.65373 0
    endloop
  endfacet
  facet normal 0.182049 0.182049 0.96629
    outer loop
      vertex 11.5726 7.42015 1
      vertex 13.3017 10.9988 0
      vertex 11.0681 7.92456 1
    endloop
  endfacet
  facet normal 0.254287 0.0402752 0.96629
    outer loop
      vertex 15.5104 7.95882 0
      vertex 11.8964 6.78456 1
      vertex 12.008 6.08 1
    endloop
  endfacet
  facet normal -0.254287 -0.0402752 0.96629
    outer loop
      vertex 7.448 6.08 1
      vertex 3.94558 4.20118 0
      vertex 7.55959 5.37544 1
    endloop
  endfacet
  facet normal -0.254287 -0.0402751 0.96629
    outer loop
      vertex 7.448 6.08 1
      vertex 3.648 6.08 0
      vertex 3.94558 4.20118 0
    endloop
  endfacet
  facet normal -0.229395 0.116883 0.96629
    outer loop
      vertex 4.80918 9.65373 0
      vertex 3.94558 7.95882 0
      vertex 7.88344 7.42015 1
    endloop
  endfacet
  facet normal -0.0402752 -0.254287 0.96629
    outer loop
      vertex 9.728 3.8 1
      vertex 7.84918 0.297577 0
      vertex 9.728 7.62939e-08 0
    endloop
  endfacet
  facet normal 0.229395 -0.116883 0.96629
    outer loop
      vertex 15.5104 4.20118 0
      vertex 11.5726 4.73985 1
      vertex 14.6468 2.50627 0
    endloop
  endfacet
  facet normal -0.229395 0.116883 0.96629
    outer loop
      vertex 7.88344 7.42015 1
      vertex 3.94558 7.95882 0
      vertex 7.55959 6.78456 1
    endloop
  endfacet
  facet normal -0.254287 0.0402752 0.96629
    outer loop
      vertex 7.55959 6.78456 1
      vertex 3.94558 7.95882 0
      vertex 7.448 6.08 1
    endloop
  endfacet
  facet normal -0.0402752 -0.254287 0.96629
    outer loop
      vertex 9.02344 3.91159 1
      vertex 7.84918 0.297577 0
      vertex 9.728 3.8 1
    endloop
  endfacet
  facet normal -0.116883 -0.229395 0.96629
    outer loop
      vertex 8.38785 4.23544 1
      vertex 7.84918 0.297577 0
      vertex 9.02344 3.91159 1
    endloop
  endfacet
  facet normal -0.116883 -0.229395 0.96629
    outer loop
      vertex 8.38785 4.23544 1
      vertex 6.15427 1.16118 0
      vertex 7.84918 0.297577 0
    endloop
  endfacet
  facet normal 0.229395 -0.116883 0.96629
    outer loop
      vertex 11.8964 5.37544 1
      vertex 11.5726 4.73985 1
      vertex 15.5104 4.20118 0
    endloop
  endfacet
  facet normal 0.254287 -0.0402752 0.96629
    outer loop
      vertex 12.008 6.08 1
      vertex 11.8964 5.37544 1
      vertex 15.5104 4.20118 0
    endloop
  endfacet
  facet normal 0.318754 0 -0.947837
    outer loop
      vertex 5.26765 5.13192 0
      vertex 8.24122 6.39603 1
      vertex 8.24122 5.76397 1
    endloop
  endfacet
  facet normal 0.318754 0 -0.947837
    outer loop
      vertex 8.24122 6.39603 1
      vertex 5.26765 5.13192 0
      vertex 5.26765 7.02808 0
    endloop
  endfacet
  facet normal -0.311789 -0.0662726 -0.947837
    outer loop
      vertex 14.288 6.08 0
      vertex 11.248 6.08 1
      vertex 11.1166 6.69824 1
    endloop
  endfacet
  facet normal -0.311789 -0.0662728 -0.947837
    outer loop
      vertex 13.8938 7.93472 0
      vertex 14.288 6.08 0
      vertex 11.1166 6.69824 1
    endloop
  endfacet
  facet normal 0.0985004 0.303153 -0.947837
    outer loop
      vertex 8.968 4.76364 1
      vertex 9.56912 4.56833 1
      vertex 7.448 2.13092 0
    endloop
  endfacet
  facet normal -0.159377 -0.276049 -0.947837
    outer loop
      vertex 10.7451 7.20958 1
      vertex 11.1371 10.4168 0
      vertex 12.7792 9.46874 0
    endloop
  endfacet
  facet normal -0.159377 -0.276049 -0.947837
    outer loop
      vertex 11.1371 10.4168 0
      vertex 10.7451 7.20958 1
      vertex 10.1977 7.52561 1
    endloop
  endfacet
  facet normal -0.311789 0.0662726 -0.947837
    outer loop
      vertex 11.248 6.08 1
      vertex 14.288 6.08 0
      vertex 11.1166 5.46176 1
    endloop
  endfacet
  facet normal -0.0333191 -0.317008 -0.947837
    outer loop
      vertex 11.1371 10.4168 0
      vertex 10.1977 7.52561 1
      vertex 9.56912 7.59167 1
    endloop
  endfacet
  facet normal 0.213288 -0.236881 -0.947837
    outer loop
      vertex 8.968 7.39636 1
      vertex 8.49829 6.97343 1
      vertex 7.448 10.0291 0
    endloop
  endfacet
  facet normal 0.213288 0.236881 -0.947837
    outer loop
      vertex 8.49829 5.18657 1
      vertex 7.448 2.13092 0
      vertex 6.03888 3.3997 0
    endloop
  endfacet
  facet normal -0.311789 0.0662728 -0.947837
    outer loop
      vertex 14.288 6.08 0
      vertex 13.8938 4.22528 0
      vertex 11.1166 5.46176 1
    endloop
  endfacet
  facet normal -0.257878 -0.187359 -0.947837
    outer loop
      vertex 12.7792 9.46874 0
      vertex 13.8938 7.93472 0
      vertex 11.1166 6.69824 1
    endloop
  endfacet
  facet normal 0.0985004 -0.303153 -0.947837
    outer loop
      vertex 9.25135 10.615 0
      vertex 9.56912 7.59167 1
      vertex 7.448 10.0291 0
    endloop
  endfacet
  facet normal -0.0333189 -0.317008 -0.947837
    outer loop
      vertex 11.1371 10.4168 0
      vertex 9.56912 7.59167 1
      vertex 9.25135 10.615 0
    endloop
  endfacet
  facet normal 0.0985003 0.303153 -0.947837
    outer loop
      vertex 9.56912 4.56833 1
      vertex 9.25135 1.54498 0
      vertex 7.448 2.13092 0
    endloop
  endfacet
  facet normal 0.213288 0.236881 -0.947837
    outer loop
      vertex 8.49829 5.18657 1
      vertex 8.968 4.76364 1
      vertex 7.448 2.13092 0
    endloop
  endfacet
  facet normal -0.0333189 0.317008 -0.947837
    outer loop
      vertex 9.56912 4.56833 1
      vertex 11.1371 1.74318 0
      vertex 9.25135 1.54498 0
    endloop
  endfacet
  facet normal -0.257878 0.187359 -0.947837
    outer loop
      vertex 13.8938 4.22528 0
      vertex 12.7792 2.69126 0
      vertex 11.1166 5.46176 1
    endloop
  endfacet
  facet normal -0.257878 -0.187359 -0.947837
    outer loop
      vertex 12.7792 9.46874 0
      vertex 11.1166 6.69824 1
      vertex 10.7451 7.20958 1
    endloop
  endfacet
  facet normal 0.0985004 -0.303153 -0.947837
    outer loop
      vertex 9.56912 7.59167 1
      vertex 8.968 7.39636 1
      vertex 7.448 10.0291 0
    endloop
  endfacet
  facet normal 0.213288 -0.236881 -0.947837
    outer loop
      vertex 7.448 10.0291 0
      vertex 8.49829 6.97343 1
      vertex 6.03888 8.7603 0
    endloop
  endfacet
  facet normal 0.291196 -0.129649 -0.947837
    outer loop
      vertex 6.03888 8.7603 0
      vertex 8.49829 6.97343 1
      vertex 5.26765 7.02808 0
    endloop
  endfacet
  facet normal 0.291196 0.129649 -0.947837
    outer loop
      vertex 8.24122 5.76397 1
      vertex 8.49829 5.18657 1
      vertex 5.26765 5.13192 0
    endloop
  endfacet
  facet normal 0.291196 0.129649 -0.947837
    outer loop
      vertex 8.49829 5.18657 1
      vertex 6.03888 3.3997 0
      vertex 5.26765 5.13192 0
    endloop
  endfacet
  facet normal -0.0333191 0.317008 -0.947837
    outer loop
      vertex 10.1977 4.63439 1
      vertex 11.1371 1.74318 0
      vertex 9.56912 4.56833 1
    endloop
  endfacet
  facet normal -0.159377 0.276049 -0.947837
    outer loop
      vertex 11.1371 1.74318 0
      vertex 10.7451 4.95042 1
      vertex 12.7792 2.69126 0
    endloop
  endfacet
  facet normal -0.159377 0.276049 -0.947837
    outer loop
      vertex 10.7451 4.95042 1
      vertex 11.1371 1.74318 0
      vertex 10.1977 4.63439 1
    endloop
  endfacet
  facet normal -0.257878 0.187359 -0.947837
    outer loop
      vertex 11.1166 5.46176 1
      vertex 12.7792 2.69126 0
      vertex 10.7451 4.95042 1
    endloop
  endfacet
  facet normal 0.291196 -0.129649 -0.947837
    outer loop
      vertex 8.49829 6.97343 1
      vertex 8.24122 6.39603 1
      vertex 5.26765 7.02808 0
    endloop
  endfacet
endsolid OpenSCAD_Model
